<?xml version="1.0" encoding="UTF-8" standalone="no"?>
<!-- Created with Inkscape (http://www.inkscape.org/) -->

<svg
   width="29.545059mm"
   height="25.848732mm"
   viewBox="0 0 29.545059 25.848732"
   version="1.1"
   id="svg5"
   xml:space="preserve"
   inkscape:export-filename="bitmap.svg"
   inkscape:export-xdpi="96"
   inkscape:export-ydpi="96"
   xmlns:inkscape="http://www.inkscape.org/namespaces/inkscape"
   xmlns:sodipodi="http://sodipodi.sourceforge.net/DTD/sodipodi-0.dtd"
   xmlns="http://www.w3.org/2000/svg"
   xmlns:svg="http://www.w3.org/2000/svg"><sodipodi:namedview
     id="namedview7"
     pagecolor="#ffffff"
     bordercolor="#111111"
     borderopacity="1"
     inkscape:showpageshadow="0"
     inkscape:pageopacity="0"
     inkscape:pagecheckerboard="1"
     inkscape:deskcolor="#d1d1d1"
     inkscape:document-units="mm"
     showgrid="false" /><defs
     id="defs2" /><g
     inkscape:label="Layer 1"
     inkscape:groupmode="layer"
     id="layer1"
     transform="translate(-14.20709,-19.328611)"><path
       style="fill:#000000;stroke-width:0.0843575"
       d="m 22.34784,45.161911 c -0.47244,-0.0686 -1.433,-0.42175 -1.89846,-0.69791 -0.25518,-0.15139 -0.63479,-0.36975 -0.84358,-0.48523 -0.20878,-0.11547 -0.43655,-0.25501 -0.50614,-0.31007 -0.29253,-0.23144 -1.2748,-0.64156 -1.65573,-0.6913 -0.47495,-0.062 -0.7053,-0.16195 -0.70863,-0.30742 -10e-4,-0.0564 -0.11517,-0.2516 -0.25307,-0.43385 l -0.25073,-0.33137 v -0.30553 c 0,-0.16804 0.0376,-0.3431 0.0835,-0.38902 l 0.0835,-0.0835 -0.3098,-0.29191 -0.30981,-0.2919 -0.36418,-0.77893 c -0.2003,-0.42841 -0.36419,-0.85035 -0.36419,-0.93764 0,-0.0873 -0.0785,-0.25856 -0.17452,-0.38059 l -0.17453,-0.22188 0.0537,-0.16911 c 0.0295,-0.093 0.10806,-0.16911 0.17453,-0.16911 0.14245,0 0.15701,-0.19661 0.0319,-0.43044 l -0.089,-0.16627 0.12718,-0.25495 0.12719,-0.25495 -0.0804,-0.2114 c -0.0442,-0.11628 -0.0804,-0.33421 -0.0804,-0.4843 0,-0.15008 -0.0341,-0.30895 -0.0758,-0.35302 -0.0417,-0.0441 -0.10223,-0.27981 -0.13457,-0.52385 l -0.0588,-0.4437 0.45091,-0.42216 0.45091,-0.42217 0.14762,0.0355 0.14763,0.0355 0.0122,-0.26626 c 0.007,-0.14645 0.0165,-0.52086 0.0217,-0.83202 l 0.009,-0.56576 0.10488,-0.10489 0.10488,-0.10488 0.10123,0.10123 c 0.13521,0.13521 0.2922,0.12809 0.3474,-0.0158 l 0.0449,-0.11699 -0.1624,0.0425 -0.1624,0.0425 v -0.34727 c 0,-0.45093 -0.11466,-0.44495 -0.21579,0.0113 l -0.0795,0.35852 -0.26025,0.0254 -0.26026,0.0254 -0.11446,-0.13791 -0.11446,-0.13792 0.10109,-0.14055 c 0.0556,-0.0773 0.1226,-0.1975 0.14889,-0.26709 0.0263,-0.0696 0.0835,-0.19327 0.12713,-0.27483 l 0.0793,-0.14828 -0.32804,-0.35786 -0.32805,-0.35786 -0.009,-0.45726 -0.009,-0.45726 -0.17613,-0.18748 -0.17613,-0.18748 0.11945,-0.35336 0.11945,-0.35337 -0.25529,-0.288343 c -0.1404,-0.158593 -0.30524,-0.28835 -0.3663,-0.28835 h -0.11102 v -0.257207 -0.257118 l 0.19271,-0.185758 c 0.10599,-0.102166 0.15534,-0.157287 0.10967,-0.12249 -0.25245,0.192336 -0.28618,-0.09504 -0.0569,-0.485055 l 0.14875,-0.253073 0.39264,-0.0035 c 0.21595,-0.0019 0.43815,-0.04896 0.49378,-0.104591 l 0.10113,-0.101136 -0.19012,-0.338287 -0.19013,-0.338289 h 0.0927 0.0927 l -0.0932,-0.174107 -0.0932,-0.174107 0.0975,-0.11745 c 0.0536,-0.0646 0.0728,-0.15734 0.0427,-0.206097 -0.0807,-0.130654 0.0751,-0.160735 1.03146,-0.199051 l 0.86467,-0.03464 0.005,0.136387 0.005,0.136388 0.0696,-0.171644 c 0.0383,-0.0944 0.13518,-0.226098 0.21538,-0.292653 l 0.14581,-0.12101 0.53684,-0.01199 0.53684,-0.01199 0.13374,-0.110999 c 0.0736,-0.06105 0.19099,-0.221685 0.26094,-0.356967 0.07,-0.135281 0.14902,-0.224145 0.17569,-0.197475 0.065,0.06497 -0.38093,0.701664 -0.53201,0.759639 -0.0657,0.02521 -0.11943,0.09884 -0.11943,0.163636 0,0.06479 -0.0787,0.217829 -0.17483,0.340077 -0.0962,0.122249 -0.15532,0.22227 -0.13147,0.22227 0.0239,0 -0.11548,0.174552 -0.30964,0.387894 l -0.35302,0.387893 0.025,0.191079 c 0.0138,0.105093 -0.10889,0.466289 -0.27259,0.802656 l -0.29764,0.611578 0.0906,0.16935 0.0906,0.169349 -0.10711,-0.0662 -0.10711,-0.0662 0.061,0.158893 c 0.0335,0.08739 0.0383,0.136202 0.0105,0.10847 -0.0277,-0.02773 -0.16218,0.06134 -0.29877,0.197931 l -0.24836,0.248354 -0.0983,-0.06077 -0.0983,-0.06077 0.0602,0.09739 0.0602,0.09739 h -0.0893 c -0.0491,0 -0.0893,0.0569 -0.0893,0.12653 0,0.0696 0.0557,0.12654 0.12389,0.12654 h 0.12389 l -0.0539,-0.14037 -0.0539,-0.14038 0.11173,0.0691 0.11172,0.069 -0.0515,-0.0833 c -0.0283,-0.0458 -10e-4,-0.08333 0.0598,-0.08333 h 0.11125 l -0.0434,0.16589 c -0.0239,0.0912 -0.11355,0.18425 -0.19932,0.20668 -0.17099,0.0447 -0.20767,0.15851 -0.0663,0.20563 l 0.0896,0.0299 -0.15907,0.37785 c -0.16168,0.38405 -0.19516,0.90583 -0.055,0.85737 0.0423,-0.0146 0.066,-0.0805 0.0525,-0.14628 l -0.0245,-0.11965 0.12442,0.0477 0.12443,0.0478 -0.0375,-0.30217 -0.0375,-0.30216 h 0.12734 c 0.07,0 0.12789,0.0664 0.12858,0.14762 l 10e-4,0.14763 0.1042,-0.1755 c 0.29597,-0.49848 0.48737,-0.73706 0.74199,-0.92492 l 0.28075,-0.20712 h -0.18567 c -0.10211,0 -0.26705,0.0936 -0.36653,0.20801 -0.0995,0.11441 -0.21048,0.18971 -0.24668,0.16734 -0.0362,-0.0224 -0.0933,0.004 -0.12686,0.0581 l -0.061,0.0988 0.0974,-0.0602 c 0.13045,-0.0806 0.1189,0.0409 -0.0215,0.2259 l -0.1135,0.14959 -0.0467,-0.17853 -0.0467,-0.17852 0.15689,-0.27933 c 0.0863,-0.15363 0.13111,-0.308028 0.0996,-0.343109 -0.0315,-0.03508 -0.0125,-0.0381 0.0423,-0.0067 0.11311,0.06481 0.22426,-0.07814 0.24138,-0.31046 0.0122,-0.166291 0.17616,-0.306637 0.36063,-0.308781 l 0.11113,-0.0013 -0.0498,-0.156805 -0.0498,-0.156805 0.12752,-0.105825 c 0.0701,-0.05821 0.10936,-0.135185 0.0872,-0.171067 -0.0222,-0.03588 0.0171,-0.112872 0.0872,-0.171089 l 0.12753,-0.105848 -0.0575,0.14998 -0.0575,0.149978 0.11889,-0.03963 c 0.0654,-0.0218 0.12364,-0.08392 0.12944,-0.138046 0.006,-0.05413 0.0153,-0.121764 0.0211,-0.150298 0.006,-0.02854 0.10302,0.0087 0.21605,0.08277 l 0.2055,0.134652 0.13193,-0.264447 c 0.0726,-0.145447 0.13134,-0.306067 0.13063,-0.356934 l -0.001,-0.09249 -0.0745,0.117739 -0.0746,0.117739 -0.1438,-0.05518 -0.1438,-0.05518 0.0511,-0.146915 0.0511,-0.146914 -0.10566,0.129607 c -0.0581,0.07128 -0.17208,0.115951 -0.25328,0.09926 -0.18405,-0.03783 -0.19433,-0.319429 -0.0142,-0.388558 0.19111,-0.07334 0.22191,-0.06408 0.15376,0.04619 l -0.0602,0.09739 0.0976,-0.06033 0.0976,-0.06033 -0.0846,-0.158049 C 18.47409,25.516439 18.47894,25.50862 18.7615,25.46715 l 0.25307,-0.03714 v 0.116905 c 0,0.0643 0.0344,0.09565 0.0764,0.06966 0.042,-0.02598 0.057,-0.121404 0.0333,-0.212047 l -0.0431,-0.164805 0.21973,-0.05515 0.21974,-0.05515 v -0.244562 -0.244486 l 0.21089,-0.183369 c 0.11599,-0.100854 0.21089,-0.226326 0.21089,-0.278829 0,-0.0525 0.11389,-0.179657 0.25308,-0.282564 0.24966,-0.184582 0.34154,-0.435126 0.15957,-0.435126 h -0.0935 l 0.0529,-0.210894 c 0.0291,-0.115991 0.0341,-0.210894 0.0111,-0.210894 -0.0917,0 -0.32612,0.445257 -0.33647,0.63916 -0.006,0.113476 -0.038,0.205892 -0.071,0.205368 -0.033,-5.24e-4 -0.10263,-9.53e-4 -0.1547,-9.53e-4 h -0.0947 l 0.11577,-0.142729 0.11578,-0.14273 -0.10545,0.06335 c -0.058,0.03484 -0.10545,0.04168 -0.10545,0.0152 0,-0.08217 1.12785,-1.23793 1.29568,-1.32775 l 0.15876,-0.08497 -0.0529,0.08557 c -0.0291,0.04706 -0.007,0.100825 0.0488,0.119472 l 0.10171,0.0339 -0.14774,0.05669 -0.14775,0.05669 0.0596,-0.09642 0.0596,-0.09643 -0.0976,0.06033 -0.0976,0.06033 0.0816,0.152504 c 0.0449,0.08388 0.0735,0.168495 0.0635,0.188039 -0.01,0.01955 0.0578,-0.04394 0.1506,-0.141083 0.0928,-0.09714 0.27121,-0.240638 0.39648,-0.318881 l 0.22777,-0.14226 0.12723,0.181647 c 0.07,0.09991 0.10646,0.215265 0.0811,0.256354 l -0.0462,0.07471 -0.10917,-0.09061 -0.10917,-0.09061 -0.052,0.135588 c -0.0775,0.201926 -0.0606,0.265572 0.0323,0.121791 l 0.0818,-0.126537 10e-4,0.111132 0.001,0.111132 0.17927,-0.0569 0.17928,-0.0569 -0.0658,0.106429 -0.0658,0.106429 0.09,-0.0556 0.09,-0.05561 -0.0398,-0.25268 -0.0398,-0.25268 h 0.0868 0.0868 l -0.052,0.147626 -0.052,0.147625 0.11007,-0.101871 0.11007,-0.101872 -0.11601,-0.13978 -0.116,-0.13978 0.18792,-0.152169 0.18792,-0.152168 -0.11861,-0.118607 -0.1186,-0.118606 0.15878,-0.09916 c 0.0873,-0.05454 0.22574,-0.09617 0.30756,-0.09251 l 0.14877,0.0067 -0.10597,0.04272 c -0.0583,0.0235 -0.0843,0.07785 -0.0577,0.120781 l 0.0482,0.07806 0.18195,-0.127441 c 0.10007,-0.07009 0.34197,-0.127437 0.53754,-0.127437 h 0.3556 l -0.0125,-0.165746 -0.0125,-0.165746 -0.13654,0.123567 c -0.0751,0.06796 -0.2203,0.123567 -0.32267,0.123567 h -0.18613 l 0.0937,-0.1751 0.0937,-0.1751 -0.17746,0.09498 -0.17747,0.09498 0.0576,0.09316 0.0576,0.09316 -0.0988,-0.06104 c -0.0543,-0.03357 -0.0769,-0.09638 -0.0502,-0.13957 0.0267,-0.04319 -0.0106,-0.07853 -0.083,-0.07853 -0.16519,0 -0.16925,-0.116741 -0.009,-0.250006 0.13364,-0.110906 0.33246,-0.04117 0.25232,0.0885 -0.0272,0.04395 -0.0906,0.05444 -0.14095,0.02332 l -0.0916,-0.05659 0.0591,0.09566 0.0591,0.09566 0.15853,-0.099 0.15854,-0.09901 -0.14136,-0.104136 -0.14135,-0.104136 0.1487,-0.05764 0.1487,-0.05764 0.12546,0.104124 0.12546,0.104124 v -0.0914 c 0,-0.05027 0.0852,-0.170796 0.18938,-0.267836 l 0.18938,-0.176435 0.14817,0.03875 c 0.0815,0.02131 0.12689,0.0043 0.10089,-0.03775 -0.026,-0.04207 0.002,-0.07707 0.0632,-0.07778 l 0.11043,-0.0013 -0.11446,-0.07252 -0.11445,-0.07252 0.0924,-0.05708 c 0.11501,-0.07108 0.99436,-0.302649 1.13187,-0.298066 0.0557,0.0019 -0.004,0.0606 -0.13315,0.130542 -0.12897,0.06994 -0.21236,0.162966 -0.18532,0.206723 l 0.0492,0.07956 0.26967,-0.189011 c 0.14832,-0.103956 0.28866,-0.21345 0.31186,-0.243319 0.0945,-0.121655 1.19482,-0.315439 2.04567,-0.360271 l 0.90684,-0.04778 v 0.07846 c 0,0.04315 -0.14236,0.09335 -0.31634,0.111552 l -0.31634,0.03309 0.46396,0.0075 c 0.25518,0.0041 0.41652,-0.01163 0.35852,-0.03503 -0.2941,-0.118672 -0.0441,-0.163486 0.39772,-0.07129 0.27674,0.05775 0.52124,0.08692 0.54334,0.06483 0.0221,-0.0221 0.22273,0.0012 0.44585,0.05186 0.22313,0.05062 0.70205,0.152674 1.06427,0.226792 0.36223,0.07412 0.79878,0.204871 0.97012,0.290561 0.67758,0.338874 1.45676,0.674124 1.56678,0.674124 0.0638,0 0.16324,0.05694 0.221,0.126536 0.0578,0.06959 0.14176,0.126536 0.18668,0.126536 0.0449,0 0.27752,0.163798 0.5169,0.363997 0.23938,0.200198 0.68199,0.53749 0.98357,0.749539 0.30157,0.212047 0.653,0.503779 0.78095,0.648293 0.12795,0.144512 0.26569,0.26275 0.30609,0.26275 0.0404,0 0.23939,0.215931 0.44222,0.479847 0.20283,0.263916 0.4447,0.56121 0.53749,0.660654 0.25979,0.2784 0.68392,0.858971 1.1697,1.601117 l 0.44173,0.67486 h 0.44164 0.44163 l 0.0602,0.09298 c 0.0331,0.05114 0.20445,0.160757 0.38076,0.2436 l 0.32056,0.150622 0.20074,-0.09146 c 0.35447,-0.161503 0.99641,0.06205 1.11843,0.389487 0.0293,0.07849 0.12211,0.192314 0.20636,0.25294 0.0842,0.06063 0.15318,0.166853 0.15318,0.236059 0,0.0692 0.0759,0.282968 0.16871,0.475028 0.0928,0.192056 0.16872,0.413346 0.16872,0.491736 0,0.0784 0.0569,0.1898 0.12653,0.24756 0.26974,0.22387 -0.003,1.09665 -0.34317,1.09665 -0.15999,0 -0.1555,0.2217 0.006,0.28358 l 0.12653,0.0486 v 0.25411 0.25411 l 0.20788,0.0522 c 0.11432,0.0287 0.23076,0.12432 0.25875,0.2125 0.028,0.0882 0.0911,0.16033 0.14034,0.16033 h 0.0894 l -0.057,0.35632 c -0.0313,0.19597 -0.11526,0.42071 -0.18649,0.49943 l -0.12952,0.14311 0.17571,0.094 0.17572,0.094 v 0.21041 0.21041 l -0.33743,0.42688 -0.33743,0.42688 -3.4e-4,0.30877 -3.4e-4,0.30876 -0.16716,0.27417 c -0.0919,0.15078 -0.21721,0.27416 -0.27838,0.27416 -0.0612,0 -0.23906,0.13189 -0.3953,0.29308 l -0.28407,0.29309 0.15203,0.28231 0.15204,0.28232 -0.0984,0.18382 c -0.0541,0.10109 -0.13903,0.18381 -0.18871,0.18381 -0.0497,0 -0.16164,0.0906 -0.24877,0.20142 -0.18887,0.2401 -0.52538,0.34144 -0.74448,0.22418 l -0.15813,-0.0846 -0.0857,0.10367 c -0.0471,0.057 -0.11311,0.25552 -0.14666,0.44111 -0.0759,0.41973 -0.24671,0.76614 -0.4084,0.82819 l -0.12311,0.0472 0.0432,0.16526 c 0.0238,0.0909 -0.0152,0.25455 -0.0865,0.36368 l -0.12971,0.19842 -0.059,0.78396 -0.059,0.78397 -0.17742,0.0933 c -0.25482,0.13404 -0.27417,0.18626 -0.26765,0.72217 l 0.006,0.4825 0.23198,0.11117 c 0.26587,0.1274 0.28656,0.25787 0.0985,0.62145 l -0.13344,0.25805 -0.24532,-0.0491 -0.24531,-0.0491 -0.36826,0.24854 c -0.20254,0.13669 -0.41635,0.30649 -0.47514,0.37733 -0.12989,0.1565 -0.47547,0.16468 -0.7611,0.018 l -0.21089,-0.10829 -0.25307,0.1429 c -0.13919,0.0786 -0.47174,0.16862 -0.739,0.20006 l -0.48593,0.0572 -0.23111,0.19189 c -0.12711,0.10554 -0.345,0.21927 -0.48419,0.25275 -0.13919,0.0335 -0.57179,0.21529 -0.96133,0.40404 l -0.70827,0.34318 -1.52721,0.0698 c -0.83996,0.0384 -1.77395,0.10844 -2.07553,0.15563 -0.55735,0.0872 -4.3761,0.15332 -5.98938,0.10369 -0.48716,-0.015 -0.94269,-0.0114 -1.01229,0.008 -0.0696,0.0194 -0.24023,0.0187 -0.37919,-10e-4 z m 6.65107,-0.43272 c 0.0721,-0.0599 0.19944,-0.0911 0.28286,-0.0695 l 0.15168,0.0394 -0.18981,0.01 c -0.10439,0.005 -0.1898,0.0521 -0.1898,0.10372 v 0.0939 l 0.4007,-0.0587 c 0.22038,-0.0323 0.43747,-0.0943 0.48242,-0.1377 l 0.0817,-0.079 -0.29262,0.046 -0.29261,0.046 0.18681,-0.0828 0.18681,-0.0828 0.46751,0.0981 0.4675,0.0981 0.14407,-0.14406 0.14406,-0.14407 h -0.10243 c -0.0563,0 -0.10243,0.038 -0.10243,0.0844 0,0.10328 -0.33651,0.10908 -0.49522,0.009 l -0.11561,-0.0732 0.36868,-0.0394 c 0.20278,-0.0217 0.40475,-0.007 0.44882,0.0323 0.10567,0.0946 0.23782,0.0924 0.17886,-0.003 -0.0539,-0.0872 0.19706,-0.1677 0.35612,-0.1142 l 0.10896,0.0367 -0.0865,0.10428 -0.0865,0.10427 h 0.25174 c 0.13845,0 0.23426,-0.0175 0.21291,-0.0388 -0.0714,-0.0714 0.21356,-0.52981 0.29721,-0.47811 0.18264,0.11288 0.80339,-0.54624 0.87229,-0.92622 l 0.0418,-0.23068 -0.13865,0.0532 -0.13865,0.0532 0.15597,-0.17235 c 0.0858,-0.0948 0.1927,-0.17235 0.23758,-0.17235 h 0.0816 l -0.0988,0.11903 c -0.0543,0.0655 -0.0685,0.13693 -0.0314,0.15881 0.0786,0.0464 0.44698,-0.0801 0.44698,-0.15356 0,-0.0274 -0.038,-0.0264 -0.0844,0.002 l -0.0844,0.0521 v -0.17788 c 0,-0.22086 0.22859,-0.67565 0.33959,-0.67565 0.0736,0 0.11468,0.11473 0.0951,0.26551 -0.004,0.03 0.076,0.0329 0.17764,0.006 l 0.18475,-0.0483 -0.12436,-0.0401 c -0.3107,-0.10004 -0.27977,-0.35042 0.0358,-0.29009 l 0.2064,0.0395 -0.0299,0.15526 -0.0299,0.15525 0.12783,-0.0491 0.12783,-0.049 -0.10283,-0.0636 -0.10282,-0.0635 0.18011,-0.0964 0.18011,-0.0964 v 0.0873 c 0,0.11216 0.24962,0.11497 0.26362,0.003 0.006,-0.0464 0.0153,-0.11916 0.0211,-0.16169 0.006,-0.0425 0.039,-0.1058 0.0738,-0.14059 0.0348,-0.0348 0.0633,-0.15185 0.0633,-0.26011 v -0.19683 h -0.12654 c -0.0696,0 -0.12653,-0.0569 -0.12653,-0.12654 0,-0.13371 0.22623,-0.16783 0.39624,-0.0598 l 0.10099,0.0642 -0.0786,0.12431 c -0.0432,0.0684 -0.0786,0.16227 -0.0786,0.20866 0,0.0464 0.0368,0.0274 0.0818,-0.0422 l 0.0818,-0.12654 0.001,0.10545 c 6.8e-4,0.058 0.0409,0.10544 0.0893,0.10544 0.0484,0 0.0769,-0.0664 0.0633,-0.14762 l -0.0248,-0.14763 0.35852,0.0268 0.35852,0.0268 v -0.13223 c 0,-0.15414 0.0961,-0.17108 0.22719,-0.04 l 0.0922,0.0922 0.20062,-0.13145 0.20062,-0.13145 0.10735,0.24253 c 0.11884,0.26846 0.3161,0.38571 0.40553,0.24102 l 0.0579,-0.0937 -0.0974,0.0602 -0.0974,0.0602 v -0.21587 c 0,-0.11873 -0.0451,-0.21587 -0.10027,-0.21587 h -0.10027 l 0.16738,-0.15594 c 0.0921,-0.0858 0.22259,-0.17767 0.29007,-0.20423 l 0.12269,-0.0483 -0.14763,-0.007 c -0.0812,-0.004 -0.14762,-0.0595 -0.14762,-0.12417 0,-0.11466 0.22864,-0.26123 0.36209,-0.23212 0.0771,0.0168 0.31403,-0.508 0.26513,-0.58713 -0.0179,-0.029 -0.11891,-0.0437 -0.22445,-0.0327 -0.10553,0.011 -0.29217,0.0248 -0.41474,0.0308 -0.25744,0.0124 -0.90455,0.49844 -0.9129,0.68562 l -0.006,0.12654 -0.0714,-0.11258 -0.0714,-0.11258 -0.046,0.17585 -0.046,0.17584 h -0.17164 c -0.0944,0 -0.19623,-0.0398 -0.2263,-0.0885 l -0.0547,-0.0884 -0.0979,0.0802 c -0.13379,0.10959 -0.41428,0.14789 -0.53373,0.0729 -0.12092,-0.0759 -0.53432,0.0714 -0.53432,0.19042 0,0.0475 -0.0518,0.0864 -0.11516,0.0864 -0.0633,0 -0.21168,0.0759 -0.32964,0.16872 -0.11797,0.0928 -0.27493,0.16871 -0.34881,0.16871 h -0.13432 v 0.14099 c 0,0.0775 -0.059,0.20615 -0.13107,0.28581 -0.0721,0.0797 -0.13679,0.22082 -0.14379,0.31371 l -0.0127,0.16889 -0.10075,-0.0387 c -0.0554,-0.0213 -0.12943,0.008 -0.16449,0.0645 l -0.0637,0.10314 0.0885,-0.0547 c 0.0487,-0.0301 0.10957,6e-5 0.13527,0.067 l 0.0467,0.12175 -0.13608,-0.0522 -0.13608,-0.0522 0.0621,0.10046 0.0621,0.10046 -0.29828,0.12463 c -0.16405,0.0686 -0.34052,0.20356 -0.39215,0.30003 l -0.0939,0.17539 -0.11186,-0.0429 c -0.0615,-0.0236 -0.18199,0.0102 -0.2677,0.0751 -0.0857,0.0649 -0.23899,0.11926 -0.34065,0.12074 -0.10165,10e-4 -0.21198,0.0466 -0.24517,0.10033 l -0.0603,0.0976 0.18191,-0.0476 c 0.10004,-0.0262 0.18171,-0.0226 0.18146,0.008 -2.5e-4,0.0305 -0.23749,0.11768 -0.52723,0.19385 -0.71709,0.1885 -1.48727,0.46848 -1.73473,0.63062 -0.11261,0.0738 -0.17884,0.0923 -0.14719,0.041 l 0.0575,-0.0931 h -0.21702 c -0.11936,0 -0.28946,0.0452 -0.378,0.10054 l -0.16098,0.10053 -0.30184,-0.0926 c -0.16601,-0.051 -0.30184,-0.0677 -0.30184,-0.0373 0,0.0632 -0.23628,0.0852 -1.30754,0.12178 -0.71214,0.0243 -1.00472,-10e-4 -1.72933,-0.15073 l -0.29525,-0.0609 0.16871,0.12347 c 0.19433,0.14222 0.12648,0.13249 1.3919,0.19963 0.53356,0.0283 1.00618,0.0853 1.05025,0.12662 0.0441,0.0413 0.17694,0.0789 0.29525,0.0836 l 0.21511,0.008 -0.21089,0.0675 c -0.30291,0.097 -0.43956,0.097 -0.37961,0 0.0287,-0.0464 0.0119,-0.0844 -0.0372,-0.0844 -0.0491,0 -0.0893,0.0403 -0.0893,0.0897 0,0.0493 -0.0664,0.0829 -0.14762,0.0746 -0.0812,-0.008 -0.24253,-0.008 -0.35852,5.9e-4 l -0.2109,0.0156 0.16872,0.0688 c 0.0928,0.0379 0.62982,0.0621 1.1934,0.0538 l 1.02468,-0.015 0.13118,-0.10887 z m -5.35373,-0.99247 -0.0984,-0.11861 0.13847,0.0531 c 0.0762,0.0292 0.13847,0.0893 0.13847,0.13345 0,0.0442 0.038,0.0568 0.0844,0.0282 0.0464,-0.0287 0.0844,-0.0124 0.0844,0.0363 0,0.0486 0.0922,0.0808 0.20481,0.0714 0.11265,-0.009 0.18473,-0.0495 0.16018,-0.0892 -0.0246,-0.0397 -0.10124,-0.0505 -0.17044,-0.0239 l -0.12581,0.0483 -0.0442,-0.16907 -0.0442,-0.16906 -0.17996,0.006 c -0.099,0.003 -0.25311,0.0346 -0.34252,0.0696 l -0.16254,0.0637 0.1468,0.0563 c 0.0807,0.031 0.12345,0.0941 0.0949,0.14032 l -0.0519,0.084 0.13307,-0.0511 0.13307,-0.0511 -0.0984,-0.11862 z m 11.42431,-0.0867 c 0.0376,-0.0638 0.10995,-0.0904 0.16066,-0.059 l 0.0922,0.057 -0.061,-0.0988 c -0.0336,-0.0543 -0.10234,-0.0732 -0.15282,-0.0421 -0.1084,0.067 -0.65804,0.0562 -0.72854,-0.0143 -0.0269,-0.0269 0.004,-0.0817 0.0693,-0.12191 0.065,-0.0402 0.12669,-0.13119 0.13712,-0.20227 l 0.019,-0.12926 -0.23763,0.0171 -0.23764,0.0171 0.0981,0.12164 0.0981,0.12164 -0.0923,-0.0552 c -0.0508,-0.0304 -0.23561,-0.0156 -0.41081,0.0327 l -0.31853,0.088 -0.0946,-0.0946 -0.0946,-0.0946 0.12476,-0.0771 0.12477,-0.0771 -0.18236,0.0137 -0.18236,0.0137 0.075,0.14015 c 0.0413,0.0771 0.0574,0.16412 0.0358,0.19342 -0.0216,0.0293 -0.0142,0.0346 0.0163,0.0118 0.0305,-0.0228 0.10737,0.002 0.17076,0.0542 0.0634,0.0526 0.13904,0.0718 0.16813,0.0427 0.0291,-0.0291 0.10691,0.013 0.17293,0.0934 0.066,0.0805 0.0976,0.10148 0.0702,0.0467 -0.0945,-0.18892 0.12765,-0.20841 0.39846,-0.035 0.14934,0.0956 0.23356,0.17513 0.18717,0.17662 -0.0464,10e-4 -0.0295,0.0374 0.0376,0.0799 l 0.12199,0.0772 0.17326,-0.0908 c 0.0953,-0.0499 0.20406,-0.14299 0.24171,-0.20678 z M 24.9625,43.453251 c 0.0287,-0.0464 0.0901,-0.0844 0.1365,-0.0844 0.0464,0 0.0609,0.038 0.0322,0.0844 l -0.0521,0.0844 h 0.17369 c 0.18196,0 0.21291,-0.0627 0.10913,-0.22117 l -0.062,-0.0946 -0.50614,-0.002 -0.50615,-0.002 0.2109,0.0676 c 0.11599,0.0372 0.16344,0.0714 0.10544,0.076 -0.19772,0.0158 -0.10619,0.17712 0.10047,0.17712 0.11325,0 0.22938,-0.038 0.25805,-0.0843 z m 13.00977,-0.34771 c 0.052,-0.052 0.0722,-0.15318 0.0447,-0.22473 l -0.0499,-0.13009 0.0987,0.061 c 0.14879,0.092 0.11841,0.003 -0.044,-0.12844 l -0.14273,-0.11577 0.0633,0.10545 0.0634,0.10544 h -0.0832 c -0.0457,0 -0.13997,-0.11388 -0.20941,-0.25307 -0.15589,-0.31249 -0.11108,-0.31603 0.27465,-0.0217 0.32138,0.24522 0.4672,0.25484 0.70058,0.0462 l 0.1443,-0.12898 0.2564,0.0376 c 0.14102,0.0207 0.2564,0.0283 0.2564,0.017 0,-0.0114 0.0254,-0.0868 0.0564,-0.16766 l 0.0564,-0.147 -0.1775,0.0464 -0.17749,0.0464 -0.0467,-0.12159 -0.0467,-0.1216 0.10448,0.0628 0.10448,0.0627 -0.11578,-0.14273 c -0.0637,-0.0785 -0.17756,-0.1454 -0.25307,-0.14866 l -0.13729,-0.006 0.16871,-0.0777 0.16872,-0.0777 -0.16872,0.0209 c -0.0928,0.0115 -0.20619,0.10606 -0.25199,0.21018 -0.0458,0.10412 -0.13254,0.18931 -0.19277,0.18931 h -0.1095 l 0.0957,0.1789 0.0957,0.17889 -0.0839,-0.0519 c -0.0462,-0.0285 -0.10662,0.007 -0.13436,0.0795 -0.0623,0.16236 -0.22079,0.0782 -0.21903,-0.11625 l 0.001,-0.14265 0.0793,0.12547 0.0793,0.12547 -0.0129,-0.17168 -0.0129,-0.17168 -0.23718,0.0348 -0.23718,0.0348 -0.14196,-0.11514 -0.14195,-0.11513 0.0666,0.11076 0.0666,0.11076 -0.1533,0.1694 c -0.0843,0.0932 -0.15447,0.25211 -0.15589,0.3532 l -0.003,0.18381 0.21089,0.14707 c 0.24638,0.17182 0.35262,0.1836 0.48268,0.0535 z m -9.02388,-0.0729 c 0.058,-6.8e-4 0.10545,-0.0433 0.10545,-0.0949 v -0.0937 l -0.30656,0.0575 -0.30655,0.0575 0.0428,-0.11139 0.0428,-0.11139 -0.64311,0.0844 -0.64311,0.0844 0.61159,0.0248 0.61159,0.0248 v 0.0905 0.0905 l 0.1898,-0.0509 c 0.1044,-0.028 0.23726,-0.0514 0.29525,-0.052 z m 8.0495,-0.0564 c 0.17422,-0.15767 0.21007,-0.32566 0.0488,-0.22878 l -0.10545,0.0633 0.10649,-0.13154 0.10649,-0.13153 -0.11639,-0.0966 -0.11638,-0.0966 -0.10252,0.12353 c -0.0564,0.0679 -0.0848,0.19178 -0.0632,0.2752 l 0.0394,0.15168 0.01,-0.18483 c 0.005,-0.10165 0.0394,-0.20311 0.0756,-0.22547 0.10867,-0.0672 0.0568,0.34691 -0.0612,0.48917 -0.14515,0.1749 -0.017,0.16946 0.17861,-0.008 z m -10.20524,-0.19593 c 1.52374,-0.22648 2.33252,-0.38878 2.91138,-0.5842 0.54006,-0.18232 0.67301,-0.17317 0.30629,0.0211 l -0.23944,0.12683 0.21089,0.0802 0.2109,0.0802 0.0422,-0.0949 c 0.0232,-0.0522 0.15606,-0.10495 0.29525,-0.1172 l 0.25307,-0.0223 -0.16375,0.12771 -0.16375,0.12771 H 30.601 c 0.0799,0 0.16716,-0.0569 0.19386,-0.12654 0.0267,-0.0696 0.11197,-0.12653 0.18948,-0.12653 0.16885,0 0.51589,-0.23021 0.51589,-0.34222 0,-0.0438 -0.12603,-0.0796 -0.28006,-0.0796 h -0.28006 l -0.27484,-0.24538 -0.27484,-0.24537 -0.22541,0.1102 c -0.37363,0.18268 -1.53819,0.54163 -1.48665,0.45824 0.0264,-0.0427 0.008,-0.0777 -0.0413,-0.0777 -0.0491,0 -0.0893,0.0405 -0.0893,0.09 v 0.09 l -0.17928,-0.0569 -0.17928,-0.0569 0.0498,0.0806 0.0498,0.0806 -0.46349,0.10372 c -1.35211,0.30259 -2.65115,0.44088 -4.00013,0.42582 -1.03404,-0.0115 -0.94422,0.0594 0.25969,0.20507 1.31475,0.1591 1.42916,0.15773 2.70779,-0.0323 z m 9.44999,-0.48694 0.0866,-0.10545 -0.11578,-0.001 -0.11577,-10e-4 0.10099,-0.0642 0.10099,-0.0642 -0.0708,-0.11461 -0.0708,-0.11462 -0.0905,0.16902 c -0.0498,0.093 -0.0665,0.19299 -0.0372,0.22229 0.0293,0.0293 0.0102,0.0533 -0.0425,0.0533 -0.0919,0 -0.084,0.079 0.0403,0.4007 l 0.057,0.14762 0.0354,-0.21089 c 0.0195,-0.11599 0.0744,-0.25834 0.12203,-0.31634 z m 0.38162,0.092 c 0.0816,-0.16979 0.22421,-0.35011 0.317,-0.4007 0.0928,-0.0506 0.19336,-0.12597 0.22347,-0.16753 0.0301,-0.0416 0.1136,-0.053 0.18551,-0.0254 l 0.13076,0.0502 -0.0449,-0.11692 -0.0449,-0.11691 -0.14065,0.0532 c -0.0773,0.0293 -0.18789,0.0999 -0.24563,0.15691 -0.0577,0.057 -0.19061,0.17328 -0.29526,0.25834 -0.28671,0.23306 -0.42194,0.43127 -0.36125,0.52947 0.0844,0.1365 0.11662,0.11068 0.27578,-0.22067 z m -12.12572,-0.29357 c 0,-0.0529 0.0664,-0.15059 0.14762,-0.21715 0.0812,-0.0665 0.1028,-0.0986 0.048,-0.0712 -0.0548,0.0274 -0.12346,0.0112 -0.1526,-0.0359 l -0.053,-0.0857 h 0.15682 c 0.0863,0 0.20237,-0.0456 0.25805,-0.10123 l 0.10123,-0.10123 0.10123,0.10123 c 0.0557,0.0557 0.17234,0.10123 0.25926,0.10123 h 0.15802 l -0.0281,-0.14763 -0.0281,-0.14763 -0.45289,-0.0259 -0.4529,-0.0259 -0.11694,-0.11694 -0.11694,-0.11694 -0.25201,0.0879 c -0.26131,0.0911 -0.41711,0.23995 -0.25114,0.23995 0.0522,0 0.17289,-0.0418 0.26823,-0.0928 l 0.17335,-0.0928 -0.0662,0.1071 -0.0662,0.10711 0.13608,-0.0522 0.13608,-0.0522 -0.0467,0.12175 c -0.0257,0.067 -0.0866,0.0971 -0.13528,0.067 l -0.0885,-0.0547 0.061,0.0988 c 0.0336,0.0543 0.0964,0.0769 0.13957,0.0502 0.0432,-0.0267 0.0785,-0.0304 0.0785,-0.008 0,0.0221 0.0213,0.0956 0.0472,0.16328 l 0.0472,0.12303 -0.23261,0.0584 -0.23262,0.0584 0.12214,0.0773 c 0.16899,0.10691 0.33303,0.0989 0.33303,-0.0163 z m 1.30754,-0.24128 c -0.0287,-0.0464 -0.0119,-0.0844 0.0372,-0.0844 0.0491,0 0.0893,0.0385 0.0893,0.0855 v 0.0855 l 0.30555,-0.12767 c 0.37145,-0.1552 0.32892,-0.15601 0.49429,0.009 l 0.13704,0.13704 0.20213,-0.18989 0.20212,-0.18989 0.13844,0.0531 c 0.0761,0.0292 0.18245,0.0259 0.23623,-0.007 0.0538,-0.0332 0.19271,-0.0518 0.30873,-0.0414 0.11602,0.0105 0.26788,-0.0182 0.33748,-0.0638 l 0.12653,-0.0829 -0.10544,-0.17014 c -0.058,-0.0936 -0.10487,-0.19913 -0.10416,-0.23456 6.8e-4,-0.0354 0.0356,-0.0103 0.0774,0.0559 0.0928,0.14669 0.42743,0.21014 0.42743,0.081 v -0.0928 l 0.13723,0.0526 c 0.0755,0.029 0.19023,0.009 0.25501,-0.0451 l 0.11777,-0.0977 -0.0569,0.14821 -0.0569,0.1482 0.19204,-0.061 0.19204,-0.0609 -0.0633,0.10243 -0.0633,0.10243 0.20037,-0.0607 c 0.1102,-0.0334 0.23482,-0.0928 0.27693,-0.132 l 0.0766,-0.0713 -0.10721,-0.12918 c -0.059,-0.071 -0.14087,-0.10838 -0.18201,-0.0829 -0.0411,0.0254 -0.0748,0.004 -0.0748,-0.0481 0,-0.0519 -0.0352,-0.0725 -0.0783,-0.0459 -0.0431,0.0266 -0.10273,-0.0286 -0.13261,-0.12278 -0.0299,-0.0941 -0.0869,-0.15102 -0.12678,-0.12639 -0.0399,0.0246 -0.0963,0.006 -0.12544,-0.0409 l -0.053,-0.0857 0.1526,-0.007 0.1526,-0.007 -0.10537,-0.0425 c -0.058,-0.0234 -0.30183,-4.2e-4 -0.54195,0.0511 -0.24011,0.0515 -0.45842,0.0641 -0.48512,0.0281 -0.0267,-0.0361 -0.18142,-0.0678 -0.34381,-0.0706 -0.16239,-0.003 -0.37117,-0.0341 -0.46397,-0.0696 l -0.16871,-0.0646 0.14762,0.0949 c 0.0812,0.0522 0.14763,0.18215 0.14763,0.28878 v 0.19386 l -0.25421,0.007 c -0.13982,0.004 -0.3722,0.0661 -0.5164,0.13802 -0.14419,0.0719 -0.2929,0.11181 -0.33046,0.0886 -0.0376,-0.0232 -0.0922,-0.004 -0.12138,0.0437 l -0.0531,0.0859 -0.35343,-0.0492 -0.35342,-0.0492 0.12653,0.0899 0.12654,0.0899 -0.10545,0.001 c -0.058,6.7e-4 -0.10544,0.0797 -0.10544,0.17555 0,0.17942 0.1404,0.5006 0.21884,0.5006 0.0243,0 0.0207,-0.038 -0.008,-0.0844 z m 12.56866,-0.16775 0.0515,-0.0834 -0.14073,0.054 -0.14073,0.054 0.10006,-0.18696 0.10005,-0.18695 0.12065,0.10014 0.12066,0.10013 v -0.0947 c 0,-0.0521 0.0523,-0.0947 0.1163,-0.0947 0.13667,0 0.34217,-0.44824 0.27842,-0.60731 l -0.044,-0.10973 -0.007,0.1607 -0.007,0.1607 -0.18835,-0.1607 -0.18835,-0.1607 0.10326,0.13429 c 0.0568,0.0739 0.0751,0.16537 0.0407,0.20333 -0.0344,0.038 -0.0151,0.0417 0.0429,0.008 l 0.10545,-0.0607 v 0.0893 c 0,0.0491 -0.0569,0.0893 -0.12654,0.0893 -0.0696,0 -0.12653,0.038 -0.12653,0.0844 0,0.0464 -0.0737,0.0844 -0.16374,0.0844 -0.0901,0 -0.1872,0.038 -0.21587,0.0844 -0.0287,0.0464 -0.11149,0.0844 -0.18402,0.0844 h -0.13189 l 0.11578,-0.14272 0.11577,-0.14273 -0.0996,0.0597 c -0.0548,0.0329 -0.12346,0.0212 -0.1526,-0.026 -0.0291,-0.0472 -0.11718,-0.0833 -0.19564,-0.0804 l -0.14264,0.005 0.18325,0.0739 0.18326,0.0739 -0.0407,0.25821 -0.0407,0.25822 h 0.25316 c 0.13923,0 0.27635,-0.0375 0.3047,-0.0834 z m -19.17996,-0.39677 0.11577,-0.14273 -0.10545,0.0633 -0.10544,0.0633 v -0.092 c 0,-0.0506 0.0563,-0.11357 0.12499,-0.13995 l 0.12499,-0.048 -0.0848,-0.15838 -0.0848,-0.15839 0.12849,0.0493 c 0.18543,0.0712 0.1584,-0.0155 -0.0788,-0.25273 l -0.2073,-0.2073 0.0491,0.24564 0.0491,0.24564 -0.20035,0.005 -0.20035,0.005 0.19512,0.0783 0.19511,0.0782 -0.13184,0.18824 c -0.22655,0.32344 -0.0317,0.48253 0.21634,0.17669 z m -2.49776,-0.79225 c 0.0297,-0.13531 0.0985,-0.24869 0.15278,-0.25195 0.0543,-0.003 0.0228,-0.036 -0.07,-0.0727 -0.19208,-0.076 -0.37961,-0.0282 -0.37961,0.0967 0,0.0464 0.0506,0.0649 0.11248,0.0412 l 0.11247,-0.0432 v 0.11479 c 0,0.0631 -0.0316,0.0952 -0.0703,0.0713 -0.0387,-0.0239 -0.0703,0.0157 -0.0703,0.0881 0,0.0723 -0.0402,0.13152 -0.0893,0.13152 -0.0491,0 -0.0669,0.0363 -0.0395,0.0807 0.0889,0.1439 0.28582,-0.004 0.34126,-0.25644 z m 18.91497,-0.43414 c 0.008,-0.10104 -0.027,-0.23292 -0.0769,-0.29305 l -0.0907,-0.10933 0.11578,-0.01 c 0.0637,-0.005 0.16036,-0.004 0.21486,0.002 0.0545,0.007 0.12317,-0.0267 0.1526,-0.0744 0.0294,-0.0476 0.0133,-0.0866 -0.0358,-0.0866 -0.0491,0 -0.0893,-0.0569 -0.0893,-0.12654 0,-0.0696 -0.0452,-0.12653 -0.10048,-0.12653 -0.0553,0 -0.0269,-0.0538 0.063,-0.11956 l 0.16351,-0.11956 0.0924,0.0767 c 0.0508,0.0421 0.12558,0.0485 0.16617,0.0141 0.0406,-0.0344 0.023,0.004 -0.0392,0.0851 l -0.11299,0.14763 h 0.18402 0.18402 l -0.061,-0.0987 -0.061,-0.0987 0.14476,0.0556 0.14476,0.0555 -0.0652,-0.10448 c -0.0359,-0.0575 -0.0759,-0.17323 -0.089,-0.25725 l -0.0238,-0.15276 0.0837,0.0517 0.0836,0.0517 -0.0482,-0.12559 c -0.0265,-0.0691 -0.0978,-0.10655 -0.15843,-0.0833 l -0.11023,0.0423 0.0397,0.15164 0.0396,0.15163 -0.13334,0.0512 c -0.0733,0.0281 -0.13333,0.0144 -0.13333,-0.0305 0,-0.13257 -0.16268,-0.0939 -0.35372,0.0841 l -0.17795,0.16579 0.10008,0.12058 0.10008,0.12059 -0.15059,-0.0122 -0.15058,-0.0122 v 0.43205 0.43204 l 0.0877,-0.0336 c 0.0482,-0.0184 0.0939,-0.11621 0.1015,-0.21726 z m -15.50004,0.0194 0.12653,-0.0818 -0.23198,-10e-4 -0.23198,-0.001 -10e-4,-0.18981 -0.001,-0.1898 -0.0818,0.12653 -0.0818,0.12654 -0.001,-0.16169 c -6.8e-4,-0.0889 -0.0253,-0.13771 -0.0546,-0.10842 -0.0293,0.0293 -0.13264,-0.002 -0.22967,-0.0703 -0.25963,-0.18186 -0.30979,-0.1544 -0.28644,0.1568 l 0.021,0.28035 0.23423,-0.0139 c 0.12882,-0.008 0.29965,0.0358 0.37961,0.0966 0.17485,0.13281 0.27294,0.13981 0.44063,0.0314 z m 19.20098,-0.23493 c 0.005,-0.10477 0.0776,-0.26559 0.1607,-0.35739 l 0.15104,-0.16689 h -0.13058 c -0.0718,0 -0.15244,-0.057 -0.17914,-0.12654 -0.0267,-0.0696 -0.11935,-0.12654 -0.20586,-0.12654 h -0.15731 v 0.12291 c 0,0.0676 0.0487,0.14159 0.10818,0.16442 l 0.10818,0.0415 -0.0469,-0.12224 c -0.0258,-0.0672 -0.009,-0.12224 0.0375,-0.12224 0.12098,0 0.19508,0.23625 0.0855,0.27275 -0.0505,0.0168 -0.10267,0.13316 -0.11604,0.25853 l -0.0243,0.22794 h 0.0927 c 0.051,0 0.0699,0.0228 0.0421,0.0506 -0.0278,0.0278 -0.18853,0.005 -0.35714,-0.0506 -0.1686,-0.0556 -0.32715,-0.0806 -0.35233,-0.0554 -0.0566,0.0566 0.47397,0.21655 0.64758,0.19522 l 0.12654,-0.0155 z m -21.08335,-0.15512 0.0526,-0.13698 -0.13956,-0.0781 c -0.17933,-0.10036 -0.18119,-0.3228 -0.003,-0.3228 h 0.13686 l -0.0909,0.10955 -0.0909,0.10955 0.30475,0.0205 0.30474,0.0205 -0.0969,-0.11675 c -0.0533,-0.0642 -0.0805,-0.13308 -0.0606,-0.15305 0.02,-0.02 -0.0972,-0.1278 -0.2604,-0.23962 l -0.29671,-0.2033 -0.0765,0.12084 c -0.0421,0.0665 -0.0797,0.23472 -0.0837,0.37391 l -0.007,0.25307 -0.0643,-0.1642 -0.0643,-0.16419 -0.0482,0.18421 -0.0482,0.18421 0.22381,0.16712 c 0.27466,0.2051 0.3409,0.21085 0.40819,0.0355 z m 9.09125,-0.19007 c -0.0289,-0.0289 -0.0625,-0.0336 -0.0747,-0.0104 -0.0122,0.0232 -0.0755,-0.002 -0.1406,-0.0557 -0.0651,-0.0538 -0.27025,-0.12623 -0.45584,-0.16086 l -0.33743,-0.063 0.11578,0.13977 c 0.12639,0.15259 0.22093,0.19075 0.13729,0.0554 -0.0287,-0.0464 -0.0119,-0.0844 0.0372,-0.0844 0.0491,0 0.0893,0.0322 0.0893,0.0715 0,0.10944 0.35817,0.24475 0.52937,0.19998 0.0837,-0.0219 0.12853,-0.0635 0.0996,-0.0924 z m 2.40531,-0.0678 c 0.0246,-0.0267 -0.0777,-0.0314 -0.22738,-0.0104 l -0.27211,0.038 0.081,-0.0976 0.081,-0.0976 -0.10411,-0.005 c -0.0573,-0.002 -0.23345,-0.0294 -0.39154,-0.0598 l -0.28743,-0.0553 0.10379,0.12507 c 0.0571,0.0688 0.15764,0.1044 0.22345,0.0791 l 0.11966,-0.0459 0.0518,0.13492 0.0518,0.13493 0.26271,-0.0463 c 0.1445,-0.0255 0.28285,-0.0681 0.30746,-0.0948 z m -13.61063,-0.53792 c 0.006,-0.0437 0.0159,-0.14596 0.0224,-0.22715 l 0.0118,-0.14763 0.0818,0.12654 0.0818,0.12653 10e-4,-0.23198 c 0.001,-0.26979 9.7e-4,-0.26963 0.38241,-0.11026 l 0.29133,0.12173 -0.13503,-0.20608 c -0.0743,-0.11335 -0.18761,-0.20609 -0.25187,-0.20609 h -0.11683 v -0.20591 c 0,-0.11326 -0.0474,-0.23323 -0.10545,-0.2666 -0.058,-0.0334 -0.0783,-0.0306 -0.0452,0.006 0.0332,0.0367 0.0199,0.14231 -0.0295,0.2346 l -0.0898,0.16781 0.0928,-0.0573 c 0.051,-0.0315 0.0928,-0.0171 0.0928,0.032 0,0.0491 -0.0392,0.0893 -0.0871,0.0893 -0.10887,0 -0.24199,-0.34333 -0.18806,-0.48505 0.0556,-0.1461 -0.13181,-0.13234 -0.28507,0.0209 l -0.12637,0.12637 -0.17008,-0.091 c -0.18923,-0.10127 -0.28848,-0.0553 -0.19773,0.0915 0.0325,0.0526 0.11226,0.0753 0.17717,0.0504 0.0649,-0.0249 0.118,-0.004 0.118,0.0468 v 0.092 l 0.11373,-0.0944 0.11373,-0.0944 0.15242,0.16841 0.15241,0.16842 H 16.07061 15.9682 l 0.0577,0.0934 0.0577,0.0934 0.0633,-0.10237 c 0.0348,-0.0563 0.0839,-0.069 0.10909,-0.0282 0.0252,0.0408 -0.0988,0.28933 -0.27563,0.55234 -0.1768,0.26301 -0.30252,0.49714 -0.27937,0.52029 0.0513,0.0513 0.39956,-0.26336 0.41428,-0.37437 z m 14.16007,-0.56048 0.42035,-0.15594 0.0959,-0.19227 0.0959,-0.19226 0.0453,0.17328 c 0.0249,0.0953 0.0891,0.17328 0.14255,0.17328 0.0535,0 0.0738,-0.038 0.0451,-0.0844 -0.0287,-0.0464 -0.0119,-0.0844 0.0372,-0.0844 0.0491,0 0.0893,0.0569 0.0893,0.12653 0,0.0696 0.0474,0.12954 0.10544,0.1332 l 0.10545,0.007 -0.10545,0.0426 c -0.18847,0.0761 -0.11122,0.17492 0.10447,0.13369 l 0.20991,-0.0401 -0.0527,-0.0853 -0.0527,-0.0853 0.29351,0.0343 0.29351,0.0343 0.0976,-0.10449 c 0.14792,-0.15835 0.11705,-0.21231 -0.0656,-0.11458 -0.0897,0.048 -0.26056,0.0873 -0.37961,0.0873 h -0.21643 v -0.12653 -0.12654 h 0.16871 c 0.0928,0 0.16987,0.0474 0.17128,0.10545 l 0.003,0.10544 0.084,-0.14412 0.084,-0.14412 0.11771,0.0452 c 0.0647,0.0248 0.19715,0.003 0.29423,-0.0493 0.0971,-0.052 0.17147,-0.0644 0.16531,-0.0276 -0.0306,0.1831 0.0229,0.27765 0.15642,0.27648 l 0.14762,-10e-4 -0.11447,-0.0725 -0.11448,-0.0725 0.0526,-0.16566 0.0526,-0.16567 0.39933,0.0615 c 0.21963,0.0338 0.42736,0.0447 0.46162,0.0242 0.0343,-0.0205 0.0408,0.0187 0.0145,0.0872 l -0.0478,0.12445 0.17336,0.0928 0.17336,0.0928 -0.0433,-0.11272 c -0.0238,-0.062 0.0326,-0.18136 0.1253,-0.26526 l 0.16854,-0.15253 0.13907,0.0534 0.13906,0.0534 -0.0516,-0.20565 -0.0516,-0.20564 0.26608,-0.13274 c 0.14635,-0.073 0.31719,-0.13274 0.37966,-0.13274 0.0625,0 0.11358,-0.0769 0.11358,-0.17081 v -0.1708 l 0.1898,-0.077 c 0.22699,-0.0921 0.97558,-0.59278 0.88711,-0.59329 -0.0341,-1.7e-4 0.0172,-0.15211 0.11385,-0.33758 l 0.17577,-0.33721 0.089,0.055 0.089,0.055 -0.0602,-0.0974 -0.0602,-0.0974 h 0.089 c 0.0489,0 0.15339,-0.23168 0.23212,-0.51485 l 0.14314,-0.51485 0.21573,-0.13783 c 0.11865,-0.0758 0.26718,-0.18706 0.33007,-0.24723 l 0.11433,-0.1094 0.18092,0.0443 c 0.0995,0.0243 0.1356,0.0232 0.0802,-0.003 l -0.10071,-0.0468 0.0503,-0.14218 c 0.0835,-0.23611 0.27788,-0.41918 0.50592,-0.47642 0.1187,-0.0298 0.28082,-0.13443 0.36026,-0.23254 l 0.14445,-0.17839 0.14843,0.057 0.14843,0.057 -0.045,0.11714 -0.045,0.11713 0.20967,0.0401 0.20967,0.0401 0.13307,-0.13307 0.13308,-0.13307 -0.0957,-0.0319 c -0.0526,-0.0175 -0.0957,-0.0689 -0.0957,-0.11419 0,-0.0453 0.0376,-0.0591 0.0836,-0.0306 0.26672,0.16484 0.62441,-0.42968 0.38036,-0.63221 -0.16065,-0.13333 -0.16408,-0.33743 -0.006,-0.33743 0.0665,0 0.14582,-0.0787 0.17634,-0.17482 l 0.0555,-0.17482 0.11462,0.044 0.11462,0.044 -0.0461,-0.12016 c -0.0254,-0.0661 -0.15412,-0.17405 -0.28613,-0.23991 l -0.24001,-0.11973 0.0928,0.14867 c 0.0511,0.0818 0.0684,0.21227 0.0386,0.29001 l -0.0542,0.14135 -0.16997,-0.091 c -0.0935,-0.05 -0.17021,-0.0612 -0.1705,-0.0247 -2.5e-4,0.0364 -0.11959,0.13401 -0.26511,0.21685 l -0.26458,0.15061 0.15349,0.11224 0.1535,0.11224 -0.11553,0.2789 c -0.0635,0.1534 -0.13043,0.23418 -0.14866,0.1795 -0.0182,-0.0547 -0.0674,-0.0782 -0.10932,-0.0523 l -0.0762,0.0471 0.0502,-0.13091 0.0502,-0.13092 -0.11447,-0.003 -0.11447,-0.003 0.16375,-0.12385 0.16374,-0.12386 h -0.13576 c -0.22798,0 -0.40472,0.0971 -0.34693,0.19059 l 0.0547,0.0886 -0.0946,-0.0585 -0.0946,-0.0585 0.05,-0.2498 0.05,-0.2498 -0.15817,0.007 -0.15817,0.007 0.10545,0.0425 c 0.14425,0.0582 0.13299,0.25294 -0.018,0.31087 l -0.12344,0.0474 -0.17181,-0.21843 -0.17182,-0.21843 v 0.13874 c 0,0.0763 -0.0745,0.20256 -0.16566,0.28058 l -0.16566,0.14184 0.0951,0.11464 0.0951,0.11464 -0.14493,0.14339 -0.14494,0.14339 0.0602,-0.15914 0.0602,-0.15913 -0.11889,0.0419 -0.11889,0.0419 0.0199,0.1792 0.0199,0.17921 -0.23076,0.0548 c -0.12692,0.0301 -0.30668,0.11513 -0.39947,0.18887 l -0.16872,0.13405 0.10545,-0.12008 c 0.14733,-0.16776 0.13145,-0.25504 -0.0464,-0.25504 -0.0835,0 -0.18886,-0.037 -0.23409,-0.0823 l -0.0823,-0.0823 -0.10161,0.1627 -0.10161,0.1627 0.0957,0.0591 0.0957,0.0591 -0.0602,-0.0974 -0.0602,-0.0974 h 0.13152 c 0.16608,0 0.1666,0.0745 0.002,0.25658 l -0.12972,0.14333 0.0807,0.20074 c 0.13077,0.3254 0.20587,0.53435 0.21365,0.59441 0.0181,0.13967 0.1349,0.16565 0.18286,0.0407 0.0292,-0.076 0.087,-0.11712 0.12852,-0.0914 0.12013,0.0742 0.0876,0.20543 -0.051,0.20543 -0.0696,0 -0.12654,0.0349 -0.12654,0.0775 0,0.18689 -0.71925,0.53116 -1.11774,0.535 -0.27664,0.003 -0.3158,0.14422 -0.0422,0.15245 l 0.18981,0.006 -0.18248,0.0883 c -0.10037,0.0485 -0.20121,0.15986 -0.22409,0.24736 l -0.0416,0.15909 h 0.16082 c 0.17828,0 0.21464,0.1255 0.0634,0.21895 l -0.0974,0.0602 0.0658,-0.10643 0.0658,-0.10643 -0.16737,0.0531 -0.16737,0.0531 -0.1066,-0.12844 -0.10659,-0.12845 h 0.0947 c 0.0521,0 0.0947,-0.0654 0.0947,-0.1453 v -0.14531 l -0.13775,0.19667 -0.13775,0.19666 0.0956,0.0591 0.0956,0.0591 -0.10544,0.14319 -0.10544,0.14319 -0.28248,-0.0814 -0.28248,-0.0814 -0.20521,0.13446 c -0.11287,0.0739 -0.18537,0.1543 -0.16113,0.17854 0.0242,0.0242 10e-4,0.0959 -0.0515,0.15922 l -0.0956,0.11514 0.15956,-0.0509 0.15955,-0.0509 -0.24977,0.21392 c -0.24216,0.20741 -0.43094,0.23568 -0.22966,0.0344 0.0549,-0.0549 0.0998,-0.1329 0.0998,-0.17333 0,-0.0404 -0.0563,-0.0173 -0.12503,0.0515 -0.0688,0.0688 -0.17316,0.14451 -0.23198,0.16832 l -0.10695,0.0433 0.10414,0.0739 0.10415,0.0739 -0.13002,0.18562 c -0.0715,0.1021 -0.17047,0.18563 -0.21992,0.18563 h -0.0899 l 0.10501,-0.12653 c 0.1801,-0.217 -0.17167,-0.0823 -0.52532,0.20115 l -0.14572,0.11679 -0.29716,-0.0482 -0.29716,-0.0482 v 0.079 c 0,0.0435 0.0328,0.0791 0.0728,0.0791 0.0401,0 0.0639,0.0854 0.053,0.1898 -0.0265,0.25257 -0.0258,0.25172 -0.14687,0.17607 -0.11133,-0.0696 -0.2347,-0.0987 -0.55363,-0.13083 -0.10731,-0.0108 -0.23533,-0.0681 -0.28449,-0.12735 -0.10608,-0.12781 -0.3218,-0.14346 -0.3218,-0.0233 0,0.10566 -0.31062,0.11163 -0.37515,0.007 -0.0262,-0.0424 0,-0.0955 0.0583,-0.11794 0.0583,-0.0224 0.0247,-0.0369 -0.0746,-0.0321 l -0.18054,0.009 0.0439,0.11431 0.0439,0.11432 -0.17967,0.047 c -0.0988,0.0258 -0.17967,0.0995 -0.17967,0.16368 v 0.1167 h -0.24888 c -0.13689,0 -0.27924,0.0475 -0.31634,0.10545 -0.0371,0.058 -0.20033,0.10788 -0.36271,0.11087 -0.16239,0.003 -0.4471,0.0329 -0.63269,0.0665 l -0.33743,0.061 0.25308,-0.12889 0.25307,-0.1289 -0.20037,0.0504 -0.20037,0.0504 0.0629,-0.10181 0.0629,-0.10181 -0.17889,0.0957 c -0.0984,0.0527 -0.1789,0.15135 -0.1789,0.21931 0,0.1284 0.0693,0.1434 0.63268,0.13708 l 0.33743,-0.004 0.14575,0.18494 c 0.0802,0.10171 0.1466,0.13868 0.14763,0.0821 l 0.002,-0.1028 0.12968,0.0498 0.12967,0.0498 0.16558,-0.14984 c 0.0911,-0.0824 0.16557,-0.12364 0.16557,-0.0916 0,0.032 0.0759,0.0176 0.16872,-0.0321 0.0928,-0.0497 0.16871,-0.0709 0.16871,-0.0473 0,0.0236 -0.10928,0.0995 -0.24285,0.16856 -0.13356,0.0691 -0.26806,0.19129 -0.29888,0.2716 l -0.056,0.14601 0.15126,-0.13668 c 0.0832,-0.0752 0.34041,-0.20686 0.5716,-0.29263 z m 6.32154,-0.20478 c -0.019,-0.0307 0.0242,-0.0783 0.0958,-0.10582 l 0.13032,-0.05 -0.10864,-0.1163 -0.10864,-0.1163 -0.0939,0.12842 -0.0939,0.12843 -0.18133,-0.0474 c -0.21388,-0.0559 -0.22813,-0.0136 -0.054,0.16051 0.07,0.07 0.10793,0.15866 0.0842,0.19698 -0.0237,0.0383 0.0487,0.0264 0.16074,-0.0265 0.11209,-0.0529 0.18827,-0.12129 0.1693,-0.15199 z m 1.16663,-0.46678 c -0.058,-0.0234 -0.10545,-0.0908 -0.10545,-0.14986 v -0.10731 l 0.55051,-0.0514 c 0.30278,-0.0283 0.61596,-0.0936 0.69595,-0.1451 l 0.14544,-0.0937 -0.16871,0.0541 c -0.0928,0.0298 -0.46835,0.0758 -0.83456,0.1022 l -0.66584,0.0481 0.0592,-0.0958 0.0592,-0.0958 H 37.32845 37.1574 l 0.0486,0.12654 c 0.0267,0.0696 0.12042,0.12653 0.20825,0.12653 h 0.15969 v 0.16872 0.16871 l 0.14762,-0.007 0.14763,-0.007 -0.10545,-0.0425 z m 3.76668,-1.16503 0.12762,-0.12762 -0.10183,-0.10183 -0.10183,-0.10183 v 0.12986 c 0,0.0714 -0.10366,0.1771 -0.23036,0.23483 l -0.23035,0.10496 0.13265,-0.15469 c 0.12582,-0.14671 0.16041,-0.56134 0.0556,-0.66618 -0.0592,-0.0592 -0.23658,0.73378 -0.18339,0.81985 0.057,0.0922 0.38772,0.007 0.53191,-0.13735 z m -24.82384,-0.7123 -0.008,-0.30228 0.1104,0.0232 0.11039,0.0232 -0.0534,-0.0864 c -0.0845,-0.1367 -0.21445,-0.10187 -0.38566,0.10336 -0.19054,0.2284 -0.20684,0.3275 -0.0436,0.26485 l 0.12038,-0.0462 -0.0422,0.16131 -0.0422,0.16132 h 0.12141 0.12141 z m 23.09175,-0.42882 c 0.0582,0 0.1893,-0.11282 0.29126,-0.25072 l 0.18537,-0.25073 -0.14117,0.0542 -0.14116,0.0542 0.0614,-0.0993 0.0614,-0.0993 -0.13553,-0.052 c -0.18904,-0.0725 -0.25772,0.0237 -0.12824,0.17973 0.11749,0.14156 0.0705,0.23284 -0.13557,0.26307 -0.24585,0.0361 -0.38128,0.11533 -0.33237,0.19447 0.0269,0.0435 0.006,0.10547 -0.0458,0.13768 l -0.0947,0.0585 0.11042,0.0682 0.11041,0.0682 0.11427,-0.16314 c 0.0628,-0.0897 0.16192,-0.16315 0.22016,-0.16315 z m -23.28107,-0.21864 -0.048,-0.19136 0.16686,0.0436 c 0.0918,0.024 0.19237,0.002 0.22354,-0.0481 l 0.0567,-0.0917 -0.11042,-0.01 c -0.0607,-0.005 -0.1353,-0.007 -0.1657,-0.003 -0.0304,0.004 -0.0767,-0.0484 -0.1028,-0.11654 l -0.0475,-0.12387 h 0.12389 c 0.0681,0 0.12689,-0.0474 0.13055,-0.10545 l 0.007,-0.10545 0.0425,0.10545 c 0.0234,0.058 0.0951,0.10545 0.15941,0.10545 h 0.11686 l -0.0483,-0.126 -0.0483,-0.12599 0.19862,-0.0756 0.19862,-0.0755 0.14814,0.13073 c 0.0815,0.0719 0.17322,0.10566 0.20387,0.075 0.0307,-0.0306 0.0159,-0.0557 -0.0329,-0.0557 -0.0487,0 -0.10918,-0.0788 -0.13435,-0.17503 l -0.0458,-0.17503 -0.18465,0.0988 c -0.10156,0.0543 -0.29585,0.0825 -0.43175,0.0626 -0.1359,-0.0199 -0.27027,10e-4 -0.2986,0.0471 l -0.0515,0.0833 0.11043,-0.0683 0.11042,-0.0682 -0.0602,0.0974 c -0.0925,0.14958 -0.16728,0.11652 -0.27846,-0.12301 l -0.10169,-0.21909 0.17042,0.0446 0.17043,0.0446 -0.12466,-0.19024 -0.12465,-0.19025 0.0685,-0.11078 0.0685,-0.11078 0.0409,0.15987 0.0409,0.15987 0.01,-0.24182 0.01,-0.24183 0.1624,0.0425 0.16241,0.0425 -0.038,-0.0989 c -0.0516,-0.13435 -0.37121,-0.12613 -0.37121,0.01 0,0.0597 -0.0747,0.10846 -0.16607,0.10846 h -0.16607 l 0.0486,-0.12653 c 0.0267,-0.0696 0.0129,-0.12654 -0.0308,-0.12654 -0.0436,0 -0.0838,0.0474 -0.0894,0.10545 -0.006,0.058 -0.0361,0.3427 -0.0679,0.63268 l -0.0579,0.52724 h 0.0961 c 0.1065,0 0.13263,0.21857 0.0328,0.27439 -0.0348,0.0195 -0.0186,0.0249 0.036,0.0121 0.0546,-0.0128 0.13845,0.0238 0.18632,0.0815 l 0.087,0.10488 -0.12468,0.24032 -0.12468,0.24032 0.0545,0.1717 0.0545,0.17171 0.11403,-0.15595 0.11403,-0.15594 z m 16.05118,0.35313 0.26232,0.0413 0.13009,-0.13009 c 0.14008,-0.14009 0.39521,-0.17674 0.39521,-0.0568 0,0.0403 0.14079,0.0962 0.31287,0.12409 l 0.31288,0.0508 0.0571,-0.0925 c 0.0314,-0.0508 0.15794,-0.0924 0.28114,-0.0924 0.1232,0 0.20241,-0.0216 0.17601,-0.048 -0.0264,-0.0264 -0.20211,-0.0389 -0.39048,-0.0278 l -0.34249,0.0202 0.0478,-0.0773 c 0.0263,-0.0425 0.15296,-0.0989 0.28152,-0.1252 0.12856,-0.0263 0.28382,-0.12985 0.34503,-0.23001 0.15058,-0.24641 0.0639,-0.30884 -0.124,-0.0893 -0.16053,0.18749 -0.3669,0.23665 -0.3669,0.0874 0,-0.0491 0.0353,-0.0675 0.0785,-0.0408 0.0432,0.0267 0.10034,0.0132 0.12701,-0.0299 l 0.0485,-0.0785 -0.27464,0.0415 c -0.15105,0.0228 -0.35871,0.0955 -0.46147,0.16143 -0.25554,0.16403 -0.29767,0.15141 -0.23319,-0.0699 l 0.0553,-0.1898 -0.22847,0.31164 -0.22848,0.31165 -0.20077,-0.13155 c -0.18965,-0.12426 -0.2751,-0.29259 -0.13749,-0.27086 0.14905,0.0235 0.27416,-0.0154 0.27416,-0.0853 0,-0.13481 -0.26299,-0.18036 -0.4173,-0.0723 -0.15423,0.10803 -0.1732,0.14621 -0.1732,0.34866 0,0.0642 -0.0854,0.14221 -0.1898,0.17338 l -0.18981,0.0567 0.18981,0.0926 c 0.10439,0.0509 0.19038,0.13424 0.19109,0.18515 l 0.001,0.0926 0.0642,-0.10106 0.0642,-0.10105 0.26232,0.0413 z m -2.92411,-0.0501 c 0,-0.12205 0.3155,-0.10387 0.36592,0.0211 l 0.0426,0.10545 0.007,-0.15677 0.007,-0.15677 0.20124,0.0505 0.20124,0.0505 0.10434,-0.12572 c 0.12325,-0.1485 0.56148,-0.16859 0.60838,-0.0279 l 0.0326,0.0978 0.16422,-0.0953 0.16422,-0.0953 -0.11852,-0.003 -0.11852,-0.003 0.15613,-0.17252 c 0.16178,-0.17875 0.2471,-0.67105 0.11631,-0.67105 -0.0409,0 -0.0962,0.0871 -0.12294,0.1936 -0.0267,0.10648 -0.11846,0.23724 -0.20386,0.29057 l -0.15526,0.097 -0.32173,-0.16403 c -0.17696,-0.0902 -0.37289,-0.16403 -0.43542,-0.16403 h -0.11368 l 0.0607,-0.10545 c 0.0334,-0.058 0.0296,-0.0773 -0.008,-0.0429 -0.038,0.0344 -0.11997,0.0203 -0.18223,-0.0314 l -0.11321,-0.0939 v 0.13687 c 0,0.0753 0.0474,0.137 0.10545,0.13718 0.058,1.6e-4 -0.0195,0.0765 -0.17221,0.1696 l -0.27766,0.16928 0.0246,0.12012 c 0.0297,0.14524 -0.0481,0.16136 -0.46047,0.0954 -0.36547,-0.0584 -0.41394,-0.1896 -0.0993,-0.26858 l 0.21707,-0.0545 -0.0863,-0.0863 -0.0863,-0.0863 -0.27624,0.13379 -0.27624,0.13378 -0.10764,-0.0893 c -0.0592,-0.0491 -0.10705,-0.0562 -0.10634,-0.0157 0.002,0.13512 0.12352,0.26448 0.29396,0.31388 l 0.16871,0.0489 -0.23198,-0.0275 c -0.12759,-0.0151 -0.23199,5.1e-4 -0.23199,0.0347 0,0.0342 -0.12337,0.0888 -0.27416,0.12139 l -0.27416,0.0593 0.20068,0.0791 0.20068,0.0791 0.0946,-0.074 0.0946,-0.074 0.50614,0.061 c 0.27838,0.0336 0.54048,0.0414 0.58245,0.0175 l 0.0763,-0.0435 -0.0602,0.0974 -0.0602,0.0974 h 0.0893 c 0.0491,0 0.0893,-0.038 0.0893,-0.0844 z m 6.88029,-1.05168 0.24621,-0.19633 -0.53626,0.13895 c -0.29494,0.0764 -0.47487,0.15123 -0.39984,0.16623 0.075,0.015 0.13641,0.0589 0.13641,0.0975 0,0.11306 0.28714,0.006 0.55348,-0.20639 z m -13.49766,0.062 -0.16403,-0.0413 0.20621,-0.1142 0.2062,-0.1142 -0.32132,-0.003 -0.32132,-0.003 0.0573,0.0928 0.0573,0.0928 -0.17889,-0.0957 -0.17889,-0.0957 v 0.15334 0.15333 l 0.40069,0.008 c 0.22039,0.004 0.32689,-0.0105 0.23667,-0.0332 z m 3.36271,-0.2425 c 0.0734,-0.0282 0.13344,-0.12306 0.13344,-0.21089 v -0.15969 h 0.12653 c 0.0696,0 0.12654,0.0402 0.12654,0.0893 0,0.0491 -0.0316,0.0698 -0.0703,0.0459 -0.0387,-0.0239 -0.0703,0.0112 -0.0703,0.078 v 0.12148 l 0.11248,-0.0933 c 0.0619,-0.0513 0.11247,-0.14788 0.11247,-0.21453 0,-0.0666 0.0353,-0.0994 0.0785,-0.0726 0.0432,0.0267 0.10488,0.006 0.13709,-0.0462 l 0.0586,-0.0948 -0.27418,0.0602 -0.27418,0.0602 0.0666,-0.10779 c 0.0366,-0.0593 -0.0333,-0.0349 -0.15551,0.0542 -0.12217,0.0891 -0.22332,0.19274 -0.22478,0.23028 -0.002,0.0375 -0.0501,0.0442 -0.10809,0.0148 -0.058,-0.0294 -0.037,0.003 0.0466,0.0709 l 0.15209,0.12427 -0.10992,0.044 c -0.0605,0.0242 -0.0846,0.047 -0.0536,0.0507 0.031,0.004 0.11642,-0.0164 0.18981,-0.0446 z m 9.70102,-0.0218 c 0.0248,-0.0402 0.13146,-0.0644 0.23696,-0.0538 l 0.19182,0.0192 -0.1513,-0.0369 -0.15129,-0.0369 0.0439,-0.14128 c 0.13562,-0.43622 -0.27437,-0.4101 -0.47394,0.0302 l -0.13258,0.29249 h 0.19563 c 0.1076,0 0.21595,-0.0329 0.24077,-0.073 z m -0.76084,-0.61339 c 0.11562,-0.0527 0.23086,-0.14955 0.25608,-0.21527 l 0.0459,-0.1195 -0.0956,0.0591 -0.0956,0.0591 0.0428,-0.22416 0.0429,-0.22417 -0.11405,0.0947 c -0.0627,0.0521 -0.0931,0.12863 -0.0674,0.17016 0.0488,0.079 -0.30288,0.24691 -0.39918,0.1906 -0.0305,-0.0178 -0.0355,0.0436 -0.0112,0.13644 0.0509,0.19469 0.10611,0.20489 0.39547,0.0731 z m -9.90339,-0.15729 c 0,-0.0464 0.0949,-0.0844 0.21089,-0.0844 0.11599,0 0.2109,-0.038 0.2109,-0.0844 0,-0.0464 -0.0971,-0.0844 -0.21588,-0.0844 h -0.21587 l 0.0521,-0.0844 c 0.0287,-0.0464 0.009,-0.0844 -0.0429,-0.0844 h -0.095 l 0.0536,0.16872 0.0536,0.16871 h -0.13222 c -0.0727,0 -0.13222,-0.0443 -0.13222,-0.0984 0,-0.0541 -0.0199,-0.0785 -0.0442,-0.0542 -0.0243,0.0243 -0.0202,0.10654 0.009,0.18278 0.0574,0.14957 0.28821,0.19301 0.28821,0.0542 z m 7.8872,-0.2224 c 0.15973,-0.24376 0.10679,-0.36914 -0.12974,-0.30729 -0.0946,0.0247 -0.15262,0.0643 -0.12895,0.088 0.0237,0.0237 -0.0304,0.14619 -0.1202,0.27227 l -0.16322,0.22923 0.20417,-0.039 c 0.1123,-0.0215 0.26437,-0.1309 0.33794,-0.24318 z m 0.76885,-0.0395 c 0.19518,-0.18336 0.3702,-0.15689 0.3702,0.056 v 0.12156 l 0.1898,-0.003 0.18981,-0.003 -0.1287,-0.10276 c -0.14055,-0.11222 -0.15664,-0.21666 -0.0575,-0.3727 l 0.0643,-0.10121 -0.16596,-0.0888 -0.16596,-0.0888 -0.0603,0.0976 -0.0603,0.0976 0.0885,-0.0547 c 0.0487,-0.0301 0.10985,7.6e-4 0.13589,0.0686 0.0763,0.19882 -0.0636,0.21583 -0.33017,0.0401 -0.1363,-0.0898 -0.21934,-0.16835 -0.18454,-0.17446 0.0348,-0.006 0.10757,-0.0159 0.16172,-0.0217 0.0541,-0.006 0.10483,-0.0971 0.11262,-0.20279 l 0.0142,-0.19226 -0.23726,0.22731 -0.23726,0.22731 0.0494,0.19693 0.0494,0.19693 h -0.17786 c -0.21491,0 -0.23677,0.14094 -0.0302,0.19492 0.0812,0.0212 0.16416,0.043 0.18437,0.0484 0.0202,0.005 0.12179,-0.0701 0.22574,-0.16777 z m -6.89785,-0.086 0.2242,-0.17917 -0.18354,0.0563 -0.18355,0.0563 -0.0695,-0.11793 c -0.0382,-0.0649 -0.16443,-0.13538 -0.28042,-0.15669 l -0.21089,-0.0388 0.0105,0.23734 c 0.0147,0.3308 0.008,0.3217 0.25031,0.3217 0.12027,0 0.31957,-0.0806 0.44287,-0.17917 z m 4.27686,-0.28073 0.34093,-0.004 0.22552,-0.14763 c 0.12403,-0.0812 0.31226,-0.14883 0.41828,-0.15031 l 0.19277,-0.003 -0.16871,-0.12878 c -0.0928,-0.0708 -0.25446,-0.11278 -0.35926,-0.0932 l -0.19054,0.0356 0.0924,-0.11128 c 0.0508,-0.0612 0.0679,-0.15091 0.0379,-0.19934 -0.0299,-0.0484 -0.0142,-0.088 0.0349,-0.088 0.20218,0 0.0712,-0.13292 -0.14265,-0.14479 l -0.23198,-0.0129 0.16871,0.0729 0.16872,0.0729 -0.12654,0.007 -0.12653,0.007 0.12653,0.0818 c 0.0696,0.045 0.0886,0.0871 0.0422,0.0935 -0.0464,0.007 -0.2362,0.0268 -0.42178,0.0453 -0.18559,0.0184 -0.38489,0.0391 -0.44288,0.0458 -0.058,0.007 -0.10545,0.0409 -0.10545,0.0759 0,0.035 -0.12009,0.09 -0.26688,0.12222 l -0.26688,0.0586 0.22594,0.13709 0.22594,0.13709 -0.0444,0.11564 -0.0444,0.11564 0.14858,-0.0686 c 0.0817,-0.0377 0.30201,-0.0704 0.48952,-0.0727 z m -4.0839,-0.0521 0.16856,-0.0902 0.12118,0.10057 0.12118,0.10057 0.0524,-0.26206 c 0.0288,-0.14414 0.0857,-0.24146 0.1265,-0.21628 0.0408,0.0252 0.0741,0.007 0.0741,-0.0409 v -0.0867 l 0.14118,0.0542 0.14118,0.0542 -0.18336,-0.18336 c -0.21548,-0.21548 -0.30581,-0.23559 -0.23553,-0.0524 0.0276,0.072 0.0204,0.11247 -0.0161,0.0899 -0.0365,-0.0226 -0.11588,-0.0104 -0.17645,0.0271 l -0.11013,0.0681 0.0994,0.18583 0.0995,0.18583 -0.16925,-0.0906 -0.16924,-0.0906 -0.11281,0.11281 c -0.062,0.062 -0.16907,0.1349 -0.23784,0.16189 l -0.12503,0.0491 0.11099,0.007 c 0.061,0.004 0.18685,-0.0339 0.27956,-0.0836 z m 8.52003,-0.0152 c 0.0701,-0.058 0.19099,-0.20035 0.26862,-0.31634 0.0776,-0.11599 0.20421,-0.29817 0.28129,-0.40483 l 0.14015,-0.19393 -0.21725,0.099 c -0.11949,0.0544 -0.20121,0.14171 -0.18162,0.19393 0.0384,0.10229 -0.40738,0.3902 -0.60414,0.3902 -0.13489,0 -0.14044,0.0165 -0.0685,0.20399 0.0616,0.16051 0.20824,0.17128 0.38145,0.028 z M 20.9051,32.457751 c 0.12053,-0.079 0.21914,-0.19965 0.21914,-0.26817 0,-0.1646 -0.017,-0.15991 -0.29914,0.0825 l -0.24103,0.2071 -0.10201,-0.0847 -0.10202,-0.0847 -0.0502,0.0812 c -0.0276,0.0447 -0.003,0.0996 0.0558,0.12208 0.0583,0.0224 -0.23567,0.029 -0.65324,0.0145 l -0.75922,-0.0263 0.33743,0.0628 c 0.18558,0.0345 0.57098,0.057 0.85642,0.05 l 0.519,-0.0128 z m 8.00138,-0.52161 c 0.1268,-0.0318 0.21205,-0.0878 0.18944,-0.12439 -0.0226,-0.0366 0.0152,-0.0881 0.0839,-0.1145 l 0.12504,-0.048 -0.0201,0.10149 -0.0201,0.10149 0.21609,-0.0241 c 0.11885,-0.0133 0.3195,0.0152 0.44589,0.0632 l 0.22979,0.0874 0.0514,-0.14668 c 0.0283,-0.0807 0.13131,-0.21641 0.22898,-0.30163 0.0977,-0.0852 0.12367,-0.12644 0.0578,-0.0916 l -0.11979,0.0633 0.0507,-0.13213 c 0.0831,-0.21652 -0.0316,-0.23941 -0.19841,-0.0396 -0.19037,0.22807 -0.21006,0.12855 -0.0292,-0.1475 l 0.13186,-0.20124 -0.11077,0.0228 c -0.24346,0.05 -0.40602,0.15653 -0.40602,0.26605 v 0.1154 l -0.27416,-0.0409 c -0.15079,-0.0225 -0.22671,-0.0184 -0.16871,0.009 0.058,0.0275 0.10544,0.0924 0.10544,0.14424 v 0.0942 l -0.10123,-0.10123 c -0.0557,-0.0557 -0.17905,-0.10502 -0.27416,-0.10964 l -0.17293,-0.008 0.19478,-0.0549 c 0.23466,-0.0661 0.2457,-0.23454 0.0129,-0.19729 l -0.16422,0.0263 0.0559,-0.14557 0.0559,-0.14557 -0.10093,0.0624 c -0.0555,0.0343 -0.0954,0.10697 -0.0887,0.16147 0.007,0.0545 0.008,0.1845 0.002,0.28889 l -0.01,0.1898 h -0.12654 c -0.0696,0 -0.12654,0.0569 -0.12654,0.12654 0,0.0696 -0.0344,0.12654 -0.0765,0.12654 -0.0421,0 -0.0566,-0.0759 -0.0323,-0.16872 0.0243,-0.0928 0.0903,-0.16871 0.14676,-0.16871 0.0564,0 0.10264,-0.0569 0.10264,-0.12654 v -0.12654 h -0.15963 c -0.0878,0 -0.13837,0.0344 -0.11237,0.0765 l 0.0473,0.0765 -0.17381,-0.0455 -0.17382,-0.0454 -0.0468,0.17891 -0.0468,0.17891 -0.0878,-0.0543 -0.0878,-0.0543 0.0579,0.0937 c 0.0318,0.0515 0.1152,0.0717 0.1852,0.0449 0.07,-0.0269 0.12124,-0.0157 0.11385,0.0248 -0.0522,0.28611 0.20545,0.55385 0.34481,0.35827 0.0237,-0.0332 0.14678,-0.0864 0.27358,-0.11825 z m 4.30786,-0.24859 c 0.10115,-0.0221 0.29779,-0.0507 0.43698,-0.0634 l 0.25307,-0.0231 -0.0223,-0.12654 -0.0223,-0.12654 0.10675,0.13502 0.10674,0.13501 0.16304,-0.0572 0.16304,-0.0572 -0.10007,-0.0619 -0.10008,-0.0619 0.08,-0.14954 0.08,-0.14954 h -0.12198 c -0.0671,0 -0.12198,0.0506 -0.12198,0.11248 0,0.0619 -0.0569,0.11248 -0.12653,0.11248 -0.0696,0 -0.12654,-0.0529 -0.12654,-0.11751 0,-0.0646 0.0569,-0.13936 0.12654,-0.16607 0.0696,-0.0267 0.12653,-0.10645 0.12653,-0.17721 v -0.12866 l -0.17565,0.0268 c -0.0966,0.0147 -0.201,0.062 -0.23198,0.10492 -0.031,0.043 -0.12824,0.13476 -0.21613,0.20399 l -0.15979,0.12587 0.0584,-0.21023 0.0584,-0.21023 -0.0926,0.14762 c -0.10415,0.16607 -0.33727,0.20009 -0.33727,0.0492 0,-0.0541 -0.024,-0.0744 -0.0533,-0.0452 -0.0293,0.0293 -0.12189,0.0165 -0.20577,-0.0283 l -0.1525,-0.0816 -0.0603,0.0976 -0.0603,0.0976 0.0885,-0.0547 c 0.10228,-0.0632 0.19058,0.12459 0.19058,0.40533 v 0.19416 l -0.16871,0.0441 c -0.0928,0.0243 -0.16872,0.10197 -0.16872,0.17268 v 0.12857 l 0.18981,0.0276 c 0.10439,0.0152 0.23991,-0.0201 0.30115,-0.0784 0.0612,-0.0583 0.1941,-0.12409 0.29525,-0.14623 z m 1.611,-0.033 c 0.0248,-0.0402 0.13968,-0.055 0.25524,-0.0329 l 0.2101,0.0402 0.26297,-0.26297 0.26296,-0.26297 0.0984,0.0563 c 0.0541,0.031 0.0705,0.0255 0.0364,-0.0122 -0.0341,-0.0376 0.004,-0.12247 0.0844,-0.1885 l 0.14632,-0.12004 -0.12654,0.0613 c -0.0696,0.0337 -0.19148,0.11697 -0.27085,0.18505 l -0.14431,0.12378 -0.3652,-0.0548 -0.3652,-0.0548 -0.18644,0.25217 c -0.10254,0.13869 -0.18643,0.27268 -0.18643,0.29776 0,0.0745 0.23931,0.0517 0.28826,-0.0275 z m -17.93858,-0.81826 c 0.024,0.024 -0.004,0.10151 -0.0631,0.17223 l -0.10671,0.12857 h 0.0973 c 0.0535,0 0.12129,-0.0624 0.15057,-0.13873 l 0.0532,-0.13874 -0.15109,-0.11048 -0.15109,-0.11048 0.0435,-0.16626 0.0435,-0.16626 -0.11432,0.0439 c -0.0629,0.0241 -0.11103,0.0687 -0.107,0.0991 0.004,0.0304 3.7e-4,0.0743 -0.008,0.0974 -0.008,0.0232 -0.0334,0.25096 -0.0554,0.50614 l -0.04,0.46397 0.18249,-0.36203 c 0.10037,-0.19911 0.20213,-0.34238 0.22614,-0.31838 z m 20.68685,0.30026 0.0636,0.10291 -0.002,-0.24099 c -9.2e-4,-0.13254 -0.0183,-0.19354 -0.0387,-0.13554 -0.0521,0.14841 -0.35565,0.13153 -0.41498,-0.0231 l -0.0493,-0.12852 -0.2758,0.0517 -0.27581,0.0517 -0.0577,-0.0933 c -0.0666,-0.10782 -0.21472,-0.0408 -0.21472,0.0972 0,0.0514 0.0222,0.0712 0.0494,0.0441 0.0645,-0.0645 0.5627,0.10668 0.65455,0.22485 l 0.0712,0.0916 -0.0475,-0.14763 c -0.0642,-0.19947 0.0548,-0.18626 0.24833,0.0276 l 0.15854,0.17519 0.0335,-0.10037 0.0335,-0.10038 z m 3.15816,-0.26157 -0.0577,-0.0934 0.16929,0.0537 0.16928,0.0537 0.0495,-0.12905 c 0.0272,-0.071 0.0128,-0.12905 -0.0322,-0.12905 -0.0449,0 -0.0817,-0.0344 -0.0817,-0.0765 0,-0.0421 0.0742,-0.0571 0.16496,-0.0333 l 0.16496,0.0431 -0.10169,-0.21909 c -0.0559,-0.1205 -0.13016,-0.21939 -0.16496,-0.21975 -0.12584,-10e-4 -0.0597,-0.15804 0.0844,-0.1999 l 0.14763,-0.0429 -0.16872,0.004 c -0.0928,0.002 -0.23779,-1.7e-4 -0.32221,-0.005 l -0.15349,-0.01 0.027,-0.1898 0.027,-0.18981 0.27416,0.0214 0.27416,0.0214 v -0.12443 -0.12443 l 0.34714,0.0294 c 0.19092,0.0162 0.38014,0.0815 0.42049,0.14525 l 0.0734,0.11582 10e-4,-0.10248 c 0.002,-0.13795 -0.29344,-0.28822 -0.44894,-0.22855 l -0.12503,0.048 -0.0598,-0.1959 c -0.0673,-0.22049 -0.28238,-0.49116 -0.39032,-0.49116 -0.0392,0 -0.0707,0.0664 -0.07,0.14763 l 0.001,0.14762 0.0818,-0.12653 c 0.0905,-0.13997 0.0909,-0.13916 0.11508,0.1898 0.0268,0.3646 -0.3269,0.27279 -0.38074,-0.0988 -0.0163,-0.11236 -0.077,-0.21991 -0.13504,-0.23901 l -0.10545,-0.0347 v 0.60308 c 0,0.33169 0.041,0.67966 0.0911,0.77326 l 0.0911,0.17019 -0.13326,0.14725 c -0.17071,0.18863 -0.16804,0.3023 0.012,0.51261 0.1577,0.18417 0.23694,0.22604 0.14439,0.0763 z m -21.9219,-0.0665 c -0.0742,-0.12004 0.17321,-0.1747 0.29653,-0.0655 l 0.11166,0.0989 -0.10754,-0.1426 c -0.0591,-0.0784 -0.10039,-0.21129 -0.0917,-0.29525 0.009,-0.084 0.0115,-0.19353 0.006,-0.24349 l -0.01,-0.0908 -0.25307,0.0371 c -0.13919,0.0204 -0.25307,0.0749 -0.25307,0.12107 v 0.0839 l 0.23198,-0.0526 0.23198,-0.0526 -0.14876,0.11688 -0.14877,0.11687 0.0371,0.20076 c 0.0474,0.25705 0.0418,0.24294 0.0967,0.24294 0.0259,0 0.0262,-0.034 4.8e-4,-0.0755 z m 12.48915,-0.15378 c -0.0128,-0.0128 -0.12041,-0.0313 -0.23912,-0.0412 l -0.21583,-0.0179 0.0212,-0.19327 c 0.0258,-0.23491 0.002,-0.23842 -0.22029,-0.0318 l -0.17331,0.16145 0.2153,0.14107 c 0.11842,0.0776 0.25231,0.1182 0.29754,0.0902 0.0452,-0.028 0.10858,-0.008 0.14079,0.0439 l 0.0585,0.0947 0.0692,-0.11201 c 0.0381,-0.0616 0.0587,-0.12249 0.0459,-0.1353 z m 3.52996,-0.0531 0.15544,-0.11366 -0.11513,-0.0712 c -0.0633,-0.0391 -0.24939,-0.0801 -0.41348,-0.0911 l -0.29834,-0.0199 0.21089,0.0698 0.21089,0.0698 -0.16871,0.01 c -0.0928,0.005 -0.22566,0.0494 -0.29525,0.0979 l -0.12654,0.0882 0.27416,-0.054 0.27417,-0.054 v 0.0911 c 0,0.12271 0.10421,0.11464 0.2919,-0.0226 z m -17.07586,-0.18543 c 0.0595,-0.0717 0.15713,-0.1116 0.21693,-0.0887 l 0.10873,0.0417 -0.0469,-0.12224 c -0.0542,-0.14127 -0.19758,-0.16515 -0.19758,-0.0329 v 0.0893 l -0.0974,-0.0602 -0.0974,-0.0602 0.0566,0.0916 c 0.0311,0.0504 0.018,0.1154 -0.0291,0.14454 -0.12018,0.0743 -0.10739,-0.15463 0.0155,-0.27752 l 0.10123,-0.10123 h -0.1434 c -0.0789,0 -0.15841,0.01 -0.17673,0.0211 -0.0183,0.0116 -0.10374,-0.0396 -0.18981,-0.11372 -0.2227,-0.19184 -0.43679,-0.25287 -0.50424,-0.14373 l -0.0579,0.0937 0.10643,-0.0658 0.10642,-0.0658 -0.0547,0.17218 -0.0547,0.17218 0.0878,0.0543 c 0.0483,0.0298 0.0878,0.0162 0.0878,-0.0302 0,-0.1079 0.33849,-0.0451 0.45778,0.0849 l 0.0906,0.0987 -0.10545,-0.0595 c -0.13442,-0.0759 -0.13734,0.0535 -0.004,0.18663 0.13317,0.13317 0.19355,0.12773 0.32375,-0.0292 z m 18.61342,-0.61535 0.0158,-0.22439 -0.13428,0.25175 -0.13428,0.25175 -0.0567,-0.16179 -0.0567,-0.1618 -0.0653,0.1056 c -0.0359,0.0581 -0.12023,0.0845 -0.18741,0.0587 l -0.12215,-0.0469 0.14557,0.24643 0.14557,0.24643 0.2171,-0.17072 0.21709,-0.17072 z m -4.78198,0.29863 c 0,-0.10672 0.0455,-0.23958 0.10123,-0.29525 l 0.10123,-0.10123 h -0.23274 -0.23274 l 0.0634,-0.10545 0.0633,-0.10545 -0.14631,0.11875 -0.1463,0.11874 -0.0851,-0.0851 c -0.0468,-0.0468 -0.18034,-0.0669 -0.29672,-0.0447 l -0.21159,0.0405 0.19484,0.11068 c 0.10717,0.0609 0.32095,0.1691 0.47508,0.24051 l 0.28024,0.12982 -0.0532,0.0861 c -0.0293,0.0474 -0.013,0.0861 0.0361,0.0861 0.0491,0 0.0893,-0.0873 0.0893,-0.19402 z m 0.86724,-0.31512 c -0.0211,-0.0807 0.009,-0.17617 0.0677,-0.21222 l 0.10604,-0.0655 -0.0528,0.13767 c -0.0291,0.0757 -0.0107,0.16374 0.0409,0.19559 l 0.0937,0.0579 -0.0602,-0.0974 -0.0602,-0.0974 h 0.0943 c 0.0519,0 0.0759,-0.0298 0.0533,-0.0663 -0.0225,-0.0365 0.0322,-0.0663 0.12156,-0.0663 0.0894,0 0.1631,0.0393 0.16381,0.0874 6.8e-4,0.048 0.0338,0.0361 0.0735,-0.0265 l 0.0722,-0.11388 h 0.30071 0.30071 l 0.1507,-0.16652 0.15069,-0.16652 -0.12216,0.0273 -0.12217,0.0273 -0.029,-0.18981 c -0.0302,-0.19817 -0.18498,-0.26789 -0.18723,-0.0844 l -0.001,0.10545 -0.062,-0.0873 c -0.0341,-0.048 -0.1379,-0.086 -0.23069,-0.0844 -0.0928,0.002 -0.1877,-0.0204 -0.21089,-0.049 -0.0232,-0.0285 -0.13709,-0.0756 -0.25308,-0.10467 -0.11599,-0.029 -0.16557,-0.0317 -0.11018,-0.006 l 0.10071,0.0469 -0.0518,0.13493 -0.0518,0.13492 0.1071,-0.0662 0.10711,-0.0662 -0.0927,0.17318 c -0.0993,0.18563 -0.37758,0.3115 -0.509,0.23028 -0.0796,-0.0492 -0.29086,0.34263 -0.36486,0.67673 l -0.0386,0.17407 0.27207,-0.12332 0.27207,-0.12332 -0.0384,-0.14668 z m -16.69537,0.12806 c 0.0471,-0.12272 -0.17187,-0.4625 -0.29805,-0.4625 -0.0334,0 -0.0461,0.0759 -0.0283,0.16872 0.0179,0.0928 -0.003,0.16871 -0.047,0.16871 -0.0437,0 -0.0795,0.0569 -0.0795,0.12654 v 0.12654 h 0.20187 c 0.11103,0 0.22397,-0.0576 0.25099,-0.12801 z m 12.09437,-0.009 0.18885,-0.0506 -0.0551,-0.0891 -0.0551,-0.0891 0.13213,0.0507 c 0.17584,0.0675 0.25731,-0.0238 0.12521,-0.14023 -0.0578,-0.051 -0.0892,-0.0835 -0.0697,-0.0723 0.0195,0.0112 0.0871,-0.0225 0.15022,-0.0749 l 0.11479,-0.0953 0.17011,0.15395 0.17011,0.15395 0.16574,-0.16574 0.16573,-0.16574 -0.16871,-0.14445 c -0.0928,-0.0795 -0.16871,-0.1212 -0.16871,-0.0928 0,0.0284 -0.0569,0.004 -0.12654,-0.0533 l -0.12654,-0.10502 v 0.17905 0.17904 h -0.12862 c -0.0707,0 -0.16646,-0.0995 -0.21271,-0.22115 l -0.0841,-0.22116 0.0854,-0.10295 c 0.13657,-0.16455 0.004,-0.21349 -0.17151,-0.0633 l -0.1598,0.13682 0.10296,0.0636 0.10295,0.0636 -0.10474,0.10475 c -0.0576,0.0576 -0.10175,0.16358 -0.0981,0.23549 l 0.007,0.13076 0.0426,-0.10545 c 0.0234,-0.058 0.0787,-0.10545 0.12284,-0.10545 h 0.0803 l -0.0951,0.17771 -0.0951,0.1777 -0.24057,-0.0481 -0.24058,-0.0481 -0.0559,0.1762 -0.0559,0.17619 0.11447,0.0725 c 0.13568,0.086 0.21942,0.0899 0.47205,0.0222 z m 7.33224,-0.29472 0.0976,-0.032 -0.20084,-0.14987 -0.20084,-0.14987 -0.1838,0.1838 -0.18379,0.18379 -0.12339,-0.16046 -0.12338,-0.16046 0.0518,0.12654 c 0.0285,0.0696 0.0738,0.18749 0.1007,0.262 l 0.0489,0.13546 0.30968,-0.10349 c 0.17033,-0.0569 0.35362,-0.11788 0.40732,-0.13547 z m -11.87087,-0.31721 0.0849,-0.1587 -0.24163,-0.25285 -0.24163,-0.25284 0.012,0.32736 0.012,0.32736 0.0955,-0.12918 0.0955,-0.12919 0.0512,0.1334 c 0.0282,0.0734 0.0176,0.11266 -0.0234,0.0873 -0.041,-0.0253 -0.0963,0.0106 -0.12292,0.08 l -0.0484,0.12605 h 0.12092 c 0.0665,0 0.15914,-0.0714 0.20586,-0.15871 z m 7.42882,-0.0522 c 0,-0.13206 0.007,-0.1356 0.31901,-0.16809 0.10586,-0.011 0.21974,-0.0502 0.25307,-0.087 0.0333,-0.0369 -0.006,-0.0432 -0.087,-0.014 l -0.14762,0.053 v -0.0907 c 0,-0.0499 -0.0557,-0.0694 -0.12384,-0.0432 -0.0681,0.0261 -0.14627,0.0112 -0.17369,-0.0332 -0.0274,-0.0444 -0.11405,-0.078 -0.19251,-0.0747 l -0.14264,0.006 0.1283,0.0573 c 0.11454,0.0512 0.1323,0.11526 0.0918,0.3315 -0.006,0.0348 -0.0471,0.007 -0.0903,-0.0608 -0.0996,-0.15756 -0.19341,-0.072 -0.12279,0.11202 0.0666,0.17348 0.28821,0.18276 0.28821,0.0121 z m -1.78227,-0.26887 -0.11577,-0.14233 0.12653,0.0469 c 0.0696,0.0258 0.22144,0.0114 0.33743,-0.0319 l 0.2109,-0.0787 -0.15767,-0.0887 -0.15768,-0.0887 -0.073,0.11527 -0.073,0.11526 -0.0111,-0.25308 -0.0111,-0.25307 -0.0377,0.14295 -0.0377,0.14295 -0.12125,-0.0465 -0.12125,-0.0465 v 0.0984 c 0,0.0541 0.0353,0.0765 0.0785,0.0498 0.0432,-0.0267 0.10075,-0.0126 0.12791,0.0314 0.0272,0.0439 0.009,0.10489 -0.0405,0.13542 l -0.0898,0.0555 0.0988,0.11903 c 0.0543,0.0655 0.11777,0.11903 0.14096,0.11903 0.0232,0 -0.01,-0.0641 -0.0736,-0.14233 z m 7.22333,-0.50626 c 0.23198,-0.0272 0.46886,-0.0865 0.52639,-0.13184 l 0.1046,-0.08239 0.0641,0.171814 0.0641,0.17182 0.12654,-0.1006 c 0.0696,-0.0553 0.18008,-0.194754 0.24553,-0.309818 l 0.119,-0.209209 -0.16118,0.126536 c -0.0887,0.06959 -0.19123,0.164497 -0.22796,0.210891 l -0.0668,0.0844 0.0246,-0.168712 0.0246,-0.168715 -0.18904,0.02626 -0.18904,0.02626 -0.21979,-0.237156 c -0.24799,-0.267564 -0.35703,-0.295486 -0.54487,-0.139504 l -0.13044,0.108324 -0.24916,-0.04016 -0.24917,-0.04016 0.14763,0.089 c 0.0812,0.04895 0.14763,0.137729 0.14763,0.197285 v 0.108286 h -0.25308 c -0.13919,0 -0.25307,-0.0357 -0.25307,-0.07932 0,-0.04363 -0.0569,-0.05747 -0.12654,-0.03077 -0.0696,0.02671 -0.12653,0.01495 -0.12653,-0.02612 0,-0.04107 0.0456,-0.08987 0.10129,-0.108444 l 0.10129,-0.03376 -0.0889,-0.05492 c -0.0489,-0.03021 -0.1565,-0.0055 -0.23917,0.05499 l -0.15031,0.109909 0.11679,0.09959 c 0.0642,0.05478 0.22701,0.197486 0.36171,0.317137 l 0.24492,0.21754 0.26122,-0.0545 c 0.14368,-0.0299 0.45104,-0.0767 0.68302,-0.10391 z m -10.13019,-0.0631 c 0.0888,0.0143 0.32424,-0.0861 0.52325,-0.223038 0.199,-0.136919 0.4775,-0.272079 0.61888,-0.300356 0.14138,-0.02828 0.25706,-0.08687 0.25706,-0.130202 0,-0.04334 -0.0325,-0.05872 -0.0722,-0.03419 -0.0397,0.02453 -0.0543,-0.04915 -0.0323,-0.163736 l 0.0398,-0.208341 h -0.0963 c -0.053,0 -0.11908,0.113882 -0.14692,0.253072 -0.0476,0.237925 -0.19824,0.3608 -0.19824,0.161686 0,-0.05026 -0.0474,-0.07399 -0.10544,-0.05272 -0.058,0.02126 -0.096,0.08137 -0.0844,0.133566 0.0116,0.0522 -0.0283,0.0949 -0.0886,0.0949 -0.0603,0 -0.15484,0.04517 -0.21004,0.100375 -0.12096,0.12096 -0.37603,0.170355 -0.30755,0.05956 0.0266,-0.04308 0.0833,-0.05676 0.12597,-0.03039 l 0.0776,0.04794 -0.0502,-0.130918 c -0.0723,-0.188331 -0.15978,-0.161741 -0.27099,0.08234 -0.0534,0.117294 -0.15444,0.235239 -0.22444,0.262102 -0.07,0.0269 -0.12726,0.0874 -0.12726,0.13449 v 0.0857 l 0.10544,-0.0838 c 0.058,-0.0461 0.17809,-0.0722 0.26687,-0.058 z m 3.77249,-0.0984 0.13782,-0.04808 -0.0377,-0.144315 -0.0377,-0.144316 0.21626,-0.115736 c 0.11894,-0.06365 0.21625,-0.147282 0.21625,-0.185838 0,-0.116416 0.22524,-0.07875 0.33743,0.05643 l 0.10502,0.126536 h 0.28701 0.28701 l 0.0802,-0.210893 c 0.0441,-0.115992 0.10416,-0.210894 0.13347,-0.210894 0.0293,0 0.0333,0.05214 0.009,0.115854 l -0.0445,0.115854 0.33068,-0.08394 0.33069,-0.08394 v -0.116275 c 0,-0.06395 -0.0443,-0.116275 -0.0984,-0.116275 -0.0541,0 -0.0733,-0.02507 -0.0427,-0.05572 0.0307,-0.03065 0.12391,0.006 0.20725,0.08142 l 0.15154,0.137139 0.24444,-0.126818 0.24444,-0.126817 0.24778,0.05442 0.24777,0.05442 -0.0577,-0.09338 c -0.0317,-0.05136 -0.0135,-0.09338 0.0406,-0.09338 0.0541,0 0.0777,-0.0538 0.0525,-0.119555 l -0.0459,-0.119554 0.12811,-0.04916 c 0.20465,-0.07853 0.22706,-0.0586 0.10355,0.09211 l -0.11578,0.141268 0.22696,-0.147676 c 0.12483,-0.08122 0.23871,-0.22985 0.25307,-0.330283 l 0.0261,-0.182607 0.23838,-0.113904 c 0.1311,-0.06265 0.2177,-0.134576 0.19244,-0.159842 -0.0253,-0.02527 -0.14069,0.01614 -0.2565,0.09202 -0.26072,0.17083 -0.47246,0.175189 -0.68543,0.01411 -0.0901,-0.06812 -0.23424,-0.12506 -0.3204,-0.126536 l -0.15665,-0.0027 0.0562,-0.147626 0.0562,-0.147626 -0.10265,0.101872 -0.10265,0.101872 0.10798,0.130111 c 0.0594,0.07156 0.17926,0.130111 0.26637,0.130111 0.0871,0 0.15838,0.0356 0.15838,0.07912 0,0.04351 -0.0759,0.0734 -0.16871,0.06641 -0.0928,-0.007 -0.16872,-0.04483 -0.16872,-0.08409 0,-0.03926 -0.0383,-0.04774 -0.085,-0.01885 l -0.085,0.05254 0.10761,0.1076 c 0.0592,0.05918 0.16386,0.129685 0.23263,0.156677 l 0.12503,0.04908 -0.18483,0.0067 c -0.10165,0.0037 -0.20549,0.04009 -0.23074,0.08095 -0.0731,0.118277 -0.50222,0.172224 -0.61672,0.07753 -0.0574,-0.04746 -0.19711,-0.06302 -0.31049,-0.03456 l -0.20614,0.05174 -0.0365,0.189665 -0.0365,0.189665 -0.0115,-0.368358 -0.0115,-0.368358 -0.18981,0.05779 c -0.10439,0.03178 -0.33215,0.07771 -0.50614,0.10206 l -0.31634,0.04427 v -0.09222 c 0,-0.13451 -0.14276,-0.11282 -0.19757,0.03002 l -0.0469,0.12224 0.1137,-0.04363 c 0.0625,-0.024 0.13877,-0.0031 0.1694,0.04648 0.0499,0.08071 -0.0564,0.127265 -0.22843,0.100098 -0.0348,-0.0055 -0.0633,0.02891 -0.0633,0.07646 0,0.07201 -0.27389,0.22611 -0.52723,0.296639 -0.0348,0.0097 -0.0917,0.02685 -0.12654,0.03815 -0.0348,0.01129 -0.0917,0.01604 -0.12653,0.01054 -0.0348,-0.0055 -0.0633,0.03021 -0.0633,0.07935 0,0.04914 -0.0353,0.0675 -0.0785,0.0408 -0.0432,-0.02669 -0.106,-0.0041 -0.13957,0.05023 l -0.061,0.09877 0.0866,-0.05354 0.0866,-0.05354 0.0503,0.310236 c 0.0587,0.361605 0.0238,0.425611 -0.15224,0.2795 -0.0701,-0.0582 -0.1892,-0.08214 -0.26461,-0.0532 l -0.13711,0.05262 0.10418,0.125537 c 0.0573,0.06905 0.0791,0.125538 0.0483,0.125538 -0.0307,0 -0.007,0.05226 0.0526,0.116128 l 0.10848,0.11612 0.16901,-0.0753 c 0.093,-0.0414 0.23103,-0.097 0.30684,-0.1234 z m 0.83228,-0.774687 c 0,-0.05085 0.0365,-0.115017 0.0811,-0.142596 l 0.0811,-0.05014 -0.0791,-0.207907 -0.079,-0.207908 0.10336,-0.01 c 0.0568,-0.0055 0.15626,-0.0026 0.22091,0.0065 0.0647,0.0091 0.14451,-0.02714 0.17745,-0.08043 0.0329,-0.0533 0.16036,-0.107935 0.28314,-0.121414 l 0.22326,-0.02451 v 0.107037 0.107039 l -0.14763,-0.03708 -0.14762,-0.03709 -0.14137,0.340233 c -0.0778,0.187128 -0.18438,0.340234 -0.23696,0.340234 h -0.0956 l 0.0617,-0.105447 c 0.0339,-0.058 -0.0208,-0.03313 -0.12155,0.05525 -0.10077,0.08839 -0.18322,0.119096 -0.18322,0.06825 z m 9.86983,0.792687 c 0,-0.110849 -0.0714,-0.289688 -0.15861,-0.397416 l -0.1586,-0.19587 0.011,0.33415 c 0.0145,0.439756 0.30623,0.686666 0.30623,0.259136 z m -7.14597,-0.135964 -0.0441,-0.168631 h 0.0942 c 0.0518,0 0.0942,0.04202 0.0942,0.09338 v 0.09338 l 0.13265,-0.0509 c 0.073,-0.028 0.20935,-0.0098 0.30311,0.04033 0.0937,0.05018 0.26338,0.06791 0.37695,0.0394 l 0.20648,-0.05182 -0.0531,-0.08598 -0.0531,-0.08598 -0.10496,0.08711 -0.10497,0.08711 -0.003,-0.146287 c -0.001,-0.08046 0.0391,-0.203227 0.0899,-0.272822 l 0.0925,-0.126536 -0.16726,0.140684 -0.16726,0.140683 -0.37961,-0.07146 -0.37961,-0.07146 -0.12653,0.125142 -0.12654,0.125144 0.14147,-0.0534 0.14147,-0.0534 -0.0459,0.175379 c -0.0252,0.09646 -0.0889,0.175959 -0.14147,0.176669 l -0.0956,0.0013 0.12251,0.0775 c 0.16786,0.10619 0.25003,0.0376 0.19716,-0.164524 z m 2.06075,-0.759133 c 0.0565,-0.06959 0.10397,-0.09342 0.10544,-0.05294 10e-4,0.04048 0.0596,0.02634 0.12922,-0.03142 l 0.12654,-0.105016 v 0.136866 c 0,0.158594 0.0749,0.171402 0.25307,0.04326 l 0.12654,-0.09102 -0.14763,0.04749 -0.14762,0.04749 V 27.30538 c 0,-0.141948 -0.22902,-0.240081 -0.29838,-0.127853 -0.0279,0.04513 -0.0919,0.05658 -0.14227,0.02546 l -0.0916,-0.05659 0.0691,0.111727 0.0691,0.111727 -0.14476,-0.05555 -0.14476,-0.05555 0.0515,0.08339 c 0.0284,0.04586 0.0269,0.123195 -0.003,0.171845 l -0.0547,0.08845 -0.11151,-0.09255 -0.11152,-0.09255 -0.056,0.09054 -0.056,0.09054 0.11172,-0.02318 0.11172,-0.02318 -0.0258,0.119726 -0.0259,0.119727 0.15238,-0.119727 c 0.0838,-0.06585 0.19863,-0.176667 0.25515,-0.246262 z m -2.96622,-0.751576 c -0.0261,-0.04221 -0.0206,-0.146601 0.0122,-0.231983 l 0.0597,-0.155238 0.0587,0.210894 0.0587,0.210894 0.008,-0.231983 0.008,-0.231984 h 0.13152 0.13151 l -0.0567,-0.09171 -0.0567,-0.09171 -0.0917,0.09171 c -0.0504,0.05044 -0.16228,0.09171 -0.24853,0.09171 H 32.3329 l 0.0602,-0.09739 0.0602,-0.09739 -0.0988,0.06104 c -0.0543,0.03357 -0.0817,0.0887 -0.0608,0.122508 0.0209,0.03381 0.005,0.114411 -0.0347,0.179121 l -0.0727,0.117652 0.14155,0.10762 c 0.16991,0.129188 0.2098,0.139072 0.14625,0.03624 z m 2.82127,-0.0076 -0.29525,-0.06215 0.16872,-0.0124 0.16871,-0.0124 -0.12653,-0.08177 -0.12654,-0.08177 0.16871,-0.0026 c 0.0928,-0.0014 0.2202,-0.0352 0.28312,-0.07507 l 0.1144,-0.07249 -0.34489,0.009 -0.34489,0.009 -0.041,0.106914 c -0.0226,0.0588 -0.12763,0.10826 -0.23348,0.109904 l -0.19245,0.003 0.2109,0.120558 c 0.11599,0.06631 0.36273,0.116906 0.54832,0.112442 l 0.33743,-0.0081 z M 20.1963,26.455222 c 0,-0.06412 -0.0438,-0.143665 -0.0974,-0.17677 l -0.0974,-0.06019 0.0547,0.08855 c 0.0301,0.0487 -0.005,0.11151 -0.0782,0.13957 -0.20316,0.07796 -0.2167,0.06458 -0.11915,-0.117697 0.11135,-0.208052 0.0264,-0.217112 -0.19766,-0.02109 l -0.16877,0.147625 0.0697,-0.118481 0.0697,-0.118481 -0.0974,0.06019 c -0.0536,0.03311 -0.0974,0.106818 -0.0974,0.163805 v 0.103614 l 0.26974,0.02055 c 0.14836,0.0113 0.28652,0.03733 0.30702,0.05783 0.0636,0.06362 0.18246,-0.04647 0.18246,-0.169032 z m -3.34053,-0.5513 c 0.005,-0.128431 0.0293,-0.220718 0.0548,-0.205081 0.0255,0.01564 0.0902,-0.0418 0.14385,-0.127635 l 0.0975,-0.156064 -0.14385,-0.10986 c -0.0791,-0.06042 -0.11597,-0.0769 -0.0819,-0.03662 0.0341,0.04028 -8.9e-4,0.119188 -0.0777,0.175353 -0.0768,0.05617 -0.14878,0.154821 -0.15993,0.219235 -0.0112,0.06441 -0.0467,0.28794 -0.079,0.496725 l -0.0587,0.379609 0.14826,-0.201075 c 0.0815,-0.11059 0.15205,-0.306153 0.15667,-0.434583 z m 12.48272,-0.43327 -0.0106,-0.140914 0.11556,0.04435 c 0.0636,0.02439 0.0946,0.07833 0.0689,0.119865 -0.0257,0.04154 0.0482,0.07552 0.16423,0.07552 0.11599,0 0.23435,-0.03796 0.26302,-0.08436 0.0287,-0.0464 0.17138,-0.08436 0.31711,-0.08436 h 0.26496 l -0.10123,-0.101229 c -0.12241,-0.122413 -0.13499,-0.267022 -0.0169,-0.194022 0.14997,0.09268 0.0894,-0.08473 -0.0778,-0.227887 l -0.16216,-0.138846 -0.0483,0.125915 -0.0483,0.125914 -0.16913,-0.05368 -0.16913,-0.05368 v 0.126536 c 0,0.06959 -0.0837,0.153113 -0.18607,0.185594 l -0.18607,0.05906 -0.0303,-0.09081 c -0.0455,-0.136465 -0.27264,-0.01858 -0.27115,0.140718 l 0.001,0.1386 0.0818,-0.126536 0.0818,-0.126536 0.001,0.100468 c 0.002,0.173687 -0.15326,0.204864 -0.24404,0.04893 l -0.087,-0.1494 -0.003,0.175745 c -0.003,0.227155 0.0758,0.301242 0.28922,0.270649 l 0.17219,-0.02469 -0.0106,-0.140914 z m 5.74422,0.01148 c -0.0855,-0.09443 -0.20245,-0.153627 -0.25998,-0.131551 -0.0575,0.02208 -0.15483,-0.02403 -0.21622,-0.102471 l -0.11161,-0.142611 0.16871,0.125082 0.16872,0.125082 -0.1589,-0.186361 c -0.0874,-0.102498 -0.1823,-0.17413 -0.2109,-0.159179 -0.0286,0.01495 -0.12006,0.05145 -0.20325,0.08112 l -0.15127,0.05393 0.0893,0.166826 0.0893,0.166824 0.13909,-0.05337 0.13909,-0.05337 -0.0661,0.106933 -0.0661,0.106932 0.30601,-0.04124 c 0.16831,-0.02268 0.32693,-0.0074 0.35248,0.03394 0.0256,0.04135 0.0691,0.07518 0.0967,0.07518 0.0276,0 -0.0196,-0.07726 -0.1051,-0.17169 z m -14.78298,-0.11855 c 0.0227,0.02269 0.0941,-0.0261 0.15872,-0.108415 l 0.11746,-0.149664 -0.13276,0.10344 -0.13276,0.103439 -0.0992,-0.09922 c -0.13306,-0.133062 -0.12531,-0.234194 0.0179,-0.234194 0.0644,0 0.11189,-0.06198 0.10545,-0.137722 l -0.0117,-0.137723 0.16871,-0.03949 c 0.0928,-0.02172 0.2505,-0.04516 0.35047,-0.05208 0.1,-0.0069 0.16836,-0.03426 0.15199,-0.06073 -0.0164,-0.02648 0.0455,-0.171898 0.1375,-0.323161 l 0.16725,-0.275021 -0.1813,0.126992 c -0.0997,0.06985 -0.24012,0.104425 -0.312,0.07684 l -0.13069,-0.05015 0.0572,0.09262 0.0572,0.09262 -0.16215,0.05146 c -0.0892,0.02831 -0.18344,0.106959 -0.20947,0.174789 -0.026,0.06783 -0.0991,0.123324 -0.16245,0.123324 -0.0633,0 -0.1187,0.04745 -0.12307,0.105447 -0.004,0.058 -0.0341,0.190859 -0.0661,0.295251 l -0.0581,0.189805 h 0.11032 0.11032 l -0.16375,0.13119 -0.16375,0.131189 0.17871,-0.08604 c 0.0983,-0.04732 0.19728,-0.06748 0.21997,-0.04479 z m 10.52492,-0.132677 0.0632,0.102315 0.20071,-0.113859 0.20072,-0.113858 0.003,-0.231983 c 0.004,-0.276679 -0.12546,-0.315712 -0.13985,-0.04218 -0.006,0.104392 -0.004,0.222781 0.003,0.263086 l 0.0133,0.07328 -0.29859,-0.05602 -0.29859,-0.05602 v 0.07412 c 0,0.126495 0.12121,0.202575 0.15608,0.09797 l 0.0331,-0.09918 0.0632,0.102315 z m 1.05027,0.0091 c 0.026,-0.04204 0.12437,-0.05627 0.21865,-0.03161 l 0.1714,0.04482 0.16646,-0.150643 c 0.0915,-0.08285 0.19129,-0.125809 0.22164,-0.09546 0.0304,0.03035 0.10992,-0.02295 0.1768,-0.118449 0.0669,-0.0955 0.0988,-0.196485 0.0708,-0.224416 -0.0279,-0.02793 -0.0508,-0.0065 -0.0508,0.04763 0,0.119747 -0.16586,0.09434 -0.32019,-0.04904 l -0.11331,-0.105279 -0.16286,0.08716 c -0.0896,0.04794 -0.16285,0.107043 -0.16285,0.131347 0,0.0243 0.038,0.02073 0.0844,-0.0079 0.0464,-0.02867 0.0844,-0.01193 0.0844,0.0372 0,0.04913 -0.12338,0.08992 -0.27416,0.09063 -0.15079,6.75e-4 -0.33111,0.03809 -0.4007,0.08307 l -0.12654,0.08177 0.10545,0.0013 c 0.058,6.74e-4 0.10095,0.02976 0.0955,0.06456 -0.03,0.189802 0.12007,0.268556 0.21599,0.113367 z m -13.8973,-0.767183 c 0.0322,0 -0.0723,0.140034 -0.23222,0.311187 l -0.29071,0.311187 0.29525,-0.237304 c 0.16239,-0.130517 0.32561,-0.289531 0.36271,-0.353366 0.0371,-0.06383 0.15098,-0.119059 0.25307,-0.122722 l 0.18561,-0.0067 -0.11072,-0.04431 c -0.0609,-0.02437 -0.27917,-0.01905 -0.48505,0.01183 l -0.37434,0.05613 V 24.5623 c 0,0.08995 -0.0288,0.163546 -0.0641,0.163546 -0.0352,0 -0.11716,0.08541 -0.18206,0.189804 l -0.11799,0.189805 0.35102,-0.316341 c 0.19306,-0.173987 0.37733,-0.31634 0.4095,-0.31634 z m 15.80024,0.08641 c 0,-0.03261 0.11536,-0.05243 0.25636,-0.04404 l 0.25636,0.01525 0.0795,-0.13426 0.0795,-0.134259 0.0742,0.11252 0.0742,0.112519 0.0508,-0.132322 0.0508,-0.132322 -0.15448,-0.08268 c -0.085,-0.04547 -0.18454,-0.05554 -0.22128,-0.02238 -0.0367,0.03316 -0.0395,0.01285 -0.006,-0.04515 l 0.0607,-0.105447 h -0.0943 c -0.0519,0 -0.0684,-0.04201 -0.0366,-0.09336 l 0.0577,-0.09336 0.0633,0.10237 0.0633,0.102371 0.0577,-0.09337 0.0577,-0.09336 -0.11042,-0.0097 c -0.16202,-0.01428 -0.25246,-0.03367 -0.5173,-0.110912 l -0.23816,-0.06946 -0.0951,0.09505 c -0.13356,0.133558 -0.31438,0.118313 -0.31438,-0.02651 0,-0.18097 -0.16203,-0.247096 -0.22207,-0.09063 l -0.0522,0.135936 0.1582,0.120108 c 0.087,0.06606 0.20566,0.103388 0.26365,0.08295 0.058,-0.02043 0.10545,-4.21e-4 0.10545,0.04455 0,0.04494 -0.038,0.08171 -0.0844,0.08171 -0.0464,0 -0.0749,0.04271 -0.0633,0.0949 0.0116,0.0522 -0.0273,0.106291 -0.0865,0.12021 -0.0592,0.01392 -0.0708,0.0067 -0.0258,-0.016 0.0981,-0.04958 0.0226,-0.283474 -0.0915,-0.283474 -0.0442,0 -0.0568,0.03796 -0.0282,0.08436 l 0.0521,0.08436 H 33.0237 c -0.2017,0 -0.23206,0.128267 -0.0472,0.199221 0.0696,0.02671 0.12653,0.101512 0.12653,0.166236 v 0.117681 h 0.33743 c 0.18559,0 0.33743,-0.02668 0.33743,-0.05929 z m -6.09306,-0.285848 -0.018,-0.241609 -0.16346,-0.06047 c -0.0899,-0.03326 -0.25188,-0.04356 -0.35995,-0.0229 l -0.19649,0.03756 0.0514,0.08313 c 0.0283,0.04572 -0.0386,0.03624 -0.14861,-0.02107 -0.10999,-0.05731 -0.17184,-0.07408 -0.13745,-0.03727 0.0344,0.03681 0.0195,0.118794 -0.0331,0.18218 -0.1302,0.156885 -0.0225,0.245446 0.13725,0.112862 0.121,-0.100414 0.16755,-0.05935 0.13381,0.118034 -0.008,0.04265 0.0452,0.02779 0.11848,-0.03302 l 0.13322,-0.110569 -0.051,0.132952 -0.051,0.132953 0.30152,-0.01557 0.30151,-0.01557 z m 3.45449,-0.576083 -0.10305,-0.06547 0.14763,-0.0013 c 0.0812,-6.75e-4 0.14762,0.05154 0.14762,0.116099 0,0.06457 0.10344,0.143353 0.22986,0.175083 l 0.22986,0.05769 0.0302,-0.09073 c 0.0166,-0.0499 0.0986,-0.09073 0.18209,-0.09073 h 0.15185 l 0.0453,-0.173346 0.0453,-0.173345 -0.20421,-0.07764 c -0.22722,-0.08639 -0.27296,-0.3138 -0.0782,-0.388552 0.18147,-0.06964 0.0688,-0.199407 -0.17321,-0.199407 -0.21659,0 -0.28012,0.124712 -0.10047,0.197204 0.058,0.0234 0.0247,0.04555 -0.074,0.04921 -0.0987,0.0037 -0.22816,0.06533 -0.28767,0.137036 -0.0595,0.07171 -0.15906,0.110858 -0.22122,0.087 -0.0622,-0.02385 -0.11303,-2.53e-4 -0.11303,0.0524 0,0.05267 -0.0213,0.07449 -0.0473,0.04848 -0.026,-0.02601 -0.14494,0.05036 -0.26428,0.169706 l -0.217,0.216997 -0.11532,-0.15771 -0.11532,-0.15771 v 0.184839 0.184838 h 0.20591 c 0.11326,0 0.2273,0.0346 0.25344,0.07689 l 0.0475,0.07689 0.25031,-0.09448 0.25032,-0.09448 z m -7.71604,-1.586488 c 0.0711,0 0.15279,-0.06122 0.18151,-0.136036 l 0.0522,-0.136038 0.10444,0.07907 0.10445,0.07907 0.29525,-0.149878 c 0.16239,-0.08243 0.2609,-0.151702 0.21891,-0.15393 -0.042,-0.0022 -0.004,-0.08946 0.0844,-0.193856 l 0.1607,-0.189805 -0.18143,0.153121 -0.18143,0.153121 -0.0555,-0.08985 c -0.0305,-0.04942 -0.10074,-0.08927 -0.156,-0.08856 l -0.10047,0.0013 0.12111,0.07664 0.12112,0.07664 -0.10371,0.124961 c -0.10879,0.131083 -0.23485,0.139253 -0.41477,0.02688 l -0.10754,-0.06717 0.0232,0.10077 c 0.0128,0.05542 -0.0881,0.164276 -0.22407,0.241894 -0.13599,0.07762 -0.26175,0.196426 -0.27946,0.264019 l -0.0322,0.122896 0.12004,-0.147626 c 0.066,-0.08119 0.17823,-0.147625 0.24935,-0.147625 z m 2.04255,-1.59965 0.14985,-0.165573 -0.0542,-0.141161 -0.0542,-0.141161 -0.16165,0.146283 c -0.0889,0.08046 -0.20228,0.121165 -0.25195,0.09047 l -0.0903,-0.05582 0.0985,0.216267 c 0.11837,0.259784 0.16834,0.266747 0.36387,0.05069 z m 2.17505,-0.755524 c 0.33097,-0.170778 0.28814,-0.223411 -0.15322,-0.188308 l -0.3852,0.03064 0.0578,0.138687 c 0.0318,0.07628 0.0596,0.19116 0.0618,0.255295 l 0.004,0.116608 0.0914,-0.116608 c 0.0503,-0.06414 0.19577,-0.170475 0.32336,-0.23631 z m -9.61413,6.850601 c -0.0645,-0.168108 0.0363,-0.234821 0.36175,-0.239501 l 0.28694,-0.0041 -0.16898,0.179871 c -0.19276,0.205183 -0.41414,0.234606 -0.47971,0.06376 z m 2.3383,-4.235736 c 0,-0.106839 0.62303,-0.598855 1.11167,-0.877904 0.47561,-0.271607 0.57065,-0.284345 0.35657,-0.04779 -0.0884,0.09766 -0.14805,0.19573 -0.13258,0.217923 0.0155,0.02219 -8e-5,0.06566 -0.0346,0.09659 -0.0345,0.03093 -0.0314,0.0023 0.007,-0.06354 l 0.0695,-0.119783 -0.14727,0.05651 c -0.081,0.03108 -0.18066,0.05652 -0.22145,0.05652 -0.0408,0 -0.28444,0.171261 -0.54143,0.380579 -0.25698,0.209319 -0.46725,0.344723 -0.46725,0.300899 z m 2.19329,-1.448612 c 0,-0.06834 0.50611,-0.339263 1.26537,-0.67735 0.60215,-0.268135 0.28146,-0.04299 -0.52724,0.370147 -0.40597,0.207398 -0.73813,0.345639 -0.73813,0.307203 z"
       id="path411" /></g></svg>
